<?xml version="1.0" encoding="utf-8"?>
<!-- Generator: Adobe Illustrator 26.0.1, SVG Export Plug-In . SVG Version: 6.00 Build 0)  -->
<svg version="1.1" id="Livello_1" xmlns="http://www.w3.org/2000/svg" xmlns:xlink="http://www.w3.org/1999/xlink" x="0px" y="0px"
	 viewBox="0 0 1381 520" style="enable-background:new 0 0 1381 520;" xml:space="preserve">
<style type="text/css">
	.st0{fill:#781C9C;}
	.st1{fill:none;stroke:#781C9C;stroke-width:6;stroke-miterlimit:10;}
	.st2{fill:#781C9C;stroke:#781C9C;stroke-width:5;stroke-linecap:round;stroke-miterlimit:10;}
</style>
<g>
	<polygon class="st0" points="1373,53 1160,53 1160,32.5 1160,12 1373,12 	"/>
</g>
<g>
	<g>
		<polyline class="st1" points="1143,32.5 81.6,32.5 29.2,84.9 		"/>
		<g>
			<path class="st0" d="M14,68.1c-8.8,8.8-8.8,23.1,0,31.9s23.1,8.8,31.9,0c8.8-8.8,8.8-23.1,0-31.9S22.8,59.3,14,68.1z"/>
		</g>
	</g>
</g>
<path class="st2" d="M105.4,62h316.7c2.2,0,3.9,1.7,3.9,3.7v10.7c0,1.6-1.3,2.9-3,2.9H321.5L310.9,62"/>
<g>
	<g>
		<polyline class="st1" points="1351.6,482.8 993.2,482.8 880,422.3 14,422.3 		"/>
		<g>
			<path class="st0" d="M1350.4,460.2c12.5,0,22.6,10.1,22.6,22.6s-10.1,22.6-22.6,22.6c-12.5,0-22.6-10.1-22.6-22.6
				S1338,460.2,1350.4,460.2z"/>
		</g>
	</g>
</g>
</svg>
