<svg width="1215" height="625" viewBox="0 0 1215 625" fill="none" xmlns="http://www.w3.org/2000/svg">
<path d="M39 175C39 176.105 39.8954 177 41 177C42.1046 177 43 176.105 43 175C43 173.895 42.1046 173 41 173C39.8954 173 39 173.895 39 175ZM153.5 175L153.765 174.735L153.655 174.625H153.5V175ZM212.5 234L212.235 234.265L212.345 234.375H212.5V234ZM428 234C428 235.105 428.895 236 430 236C431.105 236 432 235.105 432 234C432 232.895 431.105 232 430 232C428.895 232 428 232.895 428 234ZM92.5 204.5C92.5 205.605 93.3954 206.5 94.5 206.5C95.6046 206.5 96.5 205.605 96.5 204.5C96.5 203.395 95.6046 202.5 94.5 202.5C93.3954 202.5 92.5 203.395 92.5 204.5ZM149 259L148.735 259.265L148.845 259.375H149V259ZM312.5 259C312.5 260.105 313.395 261 314.5 261C315.605 261 316.5 260.105 316.5 259C316.5 257.895 315.605 257 314.5 257C313.395 257 312.5 257.895 312.5 259ZM31 202C31 203.105 31.8954 204 33 204C34.1046 204 35 203.105 35 202C35 200.895 34.1046 200 33 200C31.8954 200 31 200.895 31 202ZM120.5 289.5L120.235 289.765L120.345 289.875H120.5V289.5ZM394 289.5V289.875H394.138L394.242 289.786L394 289.5ZM428 259C428 260.105 428.895 261 430 261C431.105 261 432 260.105 432 259C432 257.895 431.105 257 430 257C428.895 257 428 257.895 428 259ZM41 175.375H153.5V174.625H41V175.375ZM153.235 175.265L212.235 234.265L212.765 233.735L153.765 174.735L153.235 175.265ZM212.5 234.375H430V233.625H212.5V234.375ZM94.2348 204.765L148.735 259.265L149.265 258.735L94.7652 204.235L94.2348 204.765ZM149 259.375H314.5V258.625H149V259.375ZM32.7348 202.265L120.235 289.765L120.765 289.235L33.2652 201.735L32.7348 202.265ZM120.5 289.875H394V289.125H120.5V289.875ZM394.242 289.786L430.242 259.286L429.758 258.714L393.758 289.214L394.242 289.786Z" fill="#781C9C"/>
<path d="M31 222C31 223.105 31.8954 224 33 224C34.1046 224 35 223.105 35 222C35 220.895 34.1046 220 33 220C31.8954 220 31 220.895 31 222ZM144 333L143.735 333.265L143.845 333.375H144V333ZM455.5 333C455.5 334.105 456.395 335 457.5 335C458.605 335 459.5 334.105 459.5 333C459.5 331.895 458.605 331 457.5 331C456.395 331 455.5 331.895 455.5 333ZM530 192C530 193.105 530.895 194 532 194C533.105 194 534 193.105 534 192C534 190.895 533.105 190 532 190C530.895 190 530 190.895 530 192ZM424.5 299.5V299.875H424.655L424.765 299.765L424.5 299.5ZM187.5 299.5C187.5 300.605 188.395 301.5 189.5 301.5C190.605 301.5 191.5 300.605 191.5 299.5C191.5 298.395 190.605 297.5 189.5 297.5C188.395 297.5 187.5 298.395 187.5 299.5ZM355.5 200C355.5 201.105 356.395 202 357.5 202C358.605 202 359.5 201.105 359.5 200C359.5 198.895 358.605 198 357.5 198C356.395 198 355.5 198.895 355.5 200ZM477.5 200V200.375H477.655L477.765 200.265L477.5 200ZM560 117.5V117.125H559.845L559.735 117.235L560 117.5ZM602.5 117.5C602.5 118.605 603.395 119.5 604.5 119.5C605.605 119.5 606.5 118.605 606.5 117.5C606.5 116.395 605.605 115.5 604.5 115.5C603.395 115.5 602.5 116.395 602.5 117.5ZM51.5 345.5C51.5 346.605 52.3954 347.5 53.5 347.5C54.6046 347.5 55.5 346.605 55.5 345.5C55.5 344.395 54.6046 343.5 53.5 343.5C52.3954 343.5 51.5 344.395 51.5 345.5ZM0.5 345.5C0.5 346.605 1.39543 347.5 2.5 347.5C3.60457 347.5 4.5 346.605 4.5 345.5C4.5 344.395 3.60457 343.5 2.5 343.5C1.39543 343.5 0.5 344.395 0.5 345.5ZM31 250C31 251.105 31.8954 252 33 252C34.1046 252 35 251.105 35 250C35 248.895 34.1046 248 33 248C31.8954 248 31 248.895 31 250ZM147 364L146.735 364.265L146.845 364.375H147V364ZM495 364C495 365.105 495.895 366 497 366C498.105 366 499 365.105 499 364C499 362.895 498.105 362 497 362C495.895 362 495 362.895 495 364ZM31 271.5C31 272.605 31.8954 273.5 33 273.5C34.1046 273.5 35 272.605 35 271.5C35 270.395 34.1046 269.5 33 269.5C31.8954 269.5 31 270.395 31 271.5ZM149.5 388L149.235 388.265L149.345 388.375H149.5V388ZM492 388L492.271 387.741L492.16 387.625H492V388ZM556 455L555.729 455.259L555.84 455.375H556V455ZM766 455L766.265 454.735L766.155 454.625H766V455ZM834 523L833.735 523.265L833.845 523.375H834V523ZM922 523V523.375H922.155L922.265 523.265L922 523ZM974.5 470.5V470.125H974.345L974.235 470.235L974.5 470.5ZM1090.5 470.5C1090.5 471.605 1091.4 472.5 1092.5 472.5C1093.6 472.5 1094.5 471.605 1094.5 470.5C1094.5 469.395 1093.6 468.5 1092.5 468.5C1091.4 468.5 1090.5 469.395 1090.5 470.5ZM32.7348 222.265L143.735 333.265L144.265 332.735L33.2652 221.735L32.7348 222.265ZM144 333.375H457.5V332.625H144V333.375ZM531.735 191.735L424.235 299.235L424.765 299.765L532.265 192.265L531.735 191.735ZM424.5 299.125H189.5V299.875H424.5V299.125ZM357.5 200.375H477.5V199.625H357.5V200.375ZM477.765 200.265L560.265 117.765L559.735 117.235L477.235 199.735L477.765 200.265ZM560 117.875H604.5V117.125H560V117.875ZM53.5 345.125H2.5V345.875H53.5V345.125ZM32.7348 250.265L146.735 364.265L147.265 363.735L33.2652 249.735L32.7348 250.265ZM147 364.375H497V363.625H147V364.375ZM32.7348 271.765L149.235 388.265L149.765 387.735L33.2652 271.235L32.7348 271.765ZM149.5 388.375H492V387.625H149.5V388.375ZM491.729 388.259L555.729 455.259L556.271 454.741L492.271 387.741L491.729 388.259ZM556 455.375H766V454.625H556V455.375ZM765.735 455.265L833.735 523.265L834.265 522.735L766.265 454.735L765.735 455.265ZM834 523.375H922V522.625H834V523.375ZM922.265 523.265L974.765 470.765L974.235 470.235L921.735 522.735L922.265 523.265ZM974.5 470.875H1092.5V470.125H974.5V470.875Z" fill="#781C9C"/>
<path d="M61 391C61 392.105 61.8954 393 63 393C64.1046 393 65 392.105 65 391C65 389.895 64.1046 389 63 389C61.8954 389 61 389.895 61 391ZM103 431.5L102.733 431.764L102.843 431.875H103V431.5ZM180 431.5C180 432.605 180.895 433.5 182 433.5C183.105 433.5 184 432.605 184 431.5C184 430.395 183.105 429.5 182 429.5C180.895 429.5 180 430.395 180 431.5ZM34 409.5C34 410.605 34.8954 411.5 36 411.5C37.1046 411.5 38 410.605 38 409.5C38 408.395 37.1046 407.5 36 407.5C34.8954 407.5 34 408.395 34 409.5ZM81 454.5L80.7348 454.765L80.8447 454.875H81V454.5ZM162.5 454.5C162.5 455.605 163.395 456.5 164.5 456.5C165.605 456.5 166.5 455.605 166.5 454.5C166.5 453.395 165.605 452.5 164.5 452.5C163.395 452.5 162.5 453.395 162.5 454.5ZM31.5 460C31.5 461.105 32.3954 462 33.5 462C34.6046 462 35.5 461.105 35.5 460C35.5 458.895 34.6046 458 33.5 458C32.3954 458 31.5 458.895 31.5 460ZM67.5 494L67.2348 494.265L67.3447 494.375H67.5V494ZM168 494V494.375H168.155L168.265 494.265L168 494ZM231.5 428.5C231.5 429.605 232.395 430.5 233.5 430.5C234.605 430.5 235.5 429.605 235.5 428.5C235.5 427.395 234.605 426.5 233.5 426.5C232.395 426.5 231.5 427.395 231.5 428.5ZM31.5 479C31.5 480.105 32.3954 481 33.5 481C34.6046 481 35.5 480.105 35.5 479C35.5 477.895 34.6046 477 33.5 477C32.3954 477 31.5 477.895 31.5 479ZM71 516.5L70.7348 516.765L70.8447 516.875H71V516.5ZM168 516.5V516.875H168.155L168.265 516.765L168 516.5ZM227 457.5V457.125H226.845L226.735 457.235L227 457.5ZM454 457.5L454.265 457.235L454.155 457.125H454V457.5ZM518 523.5C518 524.605 518.895 525.5 520 525.5C521.105 525.5 522 524.605 522 523.5C522 522.395 521.105 521.5 520 521.5C518.895 521.5 518 522.395 518 523.5ZM503.5 351.5C503.5 352.605 504.395 353.5 505.5 353.5C506.605 353.5 507.5 352.605 507.5 351.5C507.5 350.395 506.605 349.5 505.5 349.5C504.395 349.5 503.5 350.395 503.5 351.5ZM571.5 417.5L571.235 417.765L571.345 417.875H571.5V417.5ZM758 417.5L758.265 417.235L758.155 417.125H758V417.5ZM823.5 483L823.235 483.265L823.345 483.375H823.5V483ZM926.5 483V483.375H926.655L926.765 483.265L926.5 483ZM983.5 426V425.625H983.345L983.235 425.735L983.5 426ZM1122.5 426C1122.5 427.105 1123.4 428 1124.5 428C1125.6 428 1126.5 427.105 1126.5 426C1126.5 424.895 1125.6 424 1124.5 424C1123.4 424 1122.5 424.895 1122.5 426ZM917.5 447.5C917.5 448.605 918.395 449.5 919.5 449.5C920.605 449.5 921.5 448.605 921.5 447.5C921.5 446.395 920.605 445.5 919.5 445.5C918.395 445.5 917.5 446.395 917.5 447.5ZM837 447.5L836.735 447.765L836.845 447.875H837V447.5ZM777 389.5C777 390.605 777.895 391.5 779 391.5C780.105 391.5 781 390.605 781 389.5C781 388.395 780.105 387.5 779 387.5C777.895 387.5 777 388.395 777 389.5ZM814.5 382C814.5 383.105 815.395 384 816.5 384C817.605 384 818.5 383.105 818.5 382C818.5 380.895 817.605 380 816.5 380C815.395 380 814.5 380.895 814.5 382ZM856 421.5L855.735 421.765L855.845 421.875H856V421.5ZM933.5 421.5C933.5 422.605 934.395 423.5 935.5 423.5C936.605 423.5 937.5 422.605 937.5 421.5C937.5 420.395 936.605 419.5 935.5 419.5C934.395 419.5 933.5 420.395 933.5 421.5ZM1104 382C1104 383.105 1104.9 384 1106 384C1107.1 384 1108 383.105 1108 382C1108 380.895 1107.1 380 1106 380C1104.9 380 1104 380.895 1104 382ZM894.5 382L894.235 382.265L894.345 382.375H894.5V382ZM792.5 280L792.765 279.735L792.655 279.625H792.5V280ZM751 280V279.625H750.845L750.735 279.735L751 280ZM723 308V308.375H723.155L723.265 308.265L723 308ZM599.5 308V307.625H599.345L599.235 307.735L599.5 308ZM567.5 338C567.5 339.105 568.395 340 569.5 340C570.605 340 571.5 339.105 571.5 338C571.5 336.895 570.605 336 569.5 336C568.395 336 567.5 336.895 567.5 338ZM586 359C586 360.105 586.895 361 588 361C589.105 361 590 360.105 590 359C590 357.895 589.105 357 588 357C586.895 357 586 357.895 586 359ZM716.5 359V359.375H716.655L716.765 359.265L716.5 359ZM763.5 310C763.5 311.105 764.395 312 765.5 312C766.605 312 767.5 311.105 767.5 310C767.5 308.895 766.605 308 765.5 308C764.395 308 763.5 308.895 763.5 310ZM790.5 346.5C790.5 347.605 791.395 348.5 792.5 348.5C793.605 348.5 794.5 347.605 794.5 346.5C794.5 345.395 793.605 344.5 792.5 344.5C791.395 344.5 790.5 345.395 790.5 346.5ZM771 346.5V346.125H770.845L770.735 346.235L771 346.5ZM735.5 382V382.375H735.655L735.765 382.265L735.5 382ZM590.5 382C590.5 383.105 591.395 384 592.5 384C593.605 384 594.5 383.105 594.5 382C594.5 380.895 593.605 380 592.5 380C591.395 380 590.5 380.895 590.5 382ZM642.5 492C642.5 493.105 643.395 494 644.5 494C645.605 494 646.5 493.105 646.5 492C646.5 490.895 645.605 490 644.5 490C643.395 490 642.5 490.895 642.5 492ZM767.5 492L767.765 491.735L767.655 491.625H767.5V492ZM854 580.5C854 581.605 854.895 582.5 856 582.5C857.105 582.5 858 581.605 858 580.5C858 579.395 857.105 578.5 856 578.5C854.895 578.5 854 579.395 854 580.5ZM874 558.5C874 559.605 874.895 560.5 876 560.5C877.105 560.5 878 559.605 878 558.5C878 557.395 877.105 556.5 876 556.5C874.895 556.5 874 557.395 874 558.5ZM940.5 623L940.235 623.265L940.345 623.375H940.5V623ZM1081.5 623C1081.5 624.105 1082.4 625 1083.5 625C1084.6 625 1085.5 624.105 1085.5 623C1085.5 621.895 1084.6 621 1083.5 621C1082.4 621 1081.5 621.895 1081.5 623ZM506.5 328C506.5 329.105 507.395 330 508.5 330C509.605 330 510.5 329.105 510.5 328C510.5 326.895 509.605 326 508.5 326C507.395 326 506.5 326.895 506.5 328ZM560 276.5V276.125H559.845L559.735 276.235L560 276.5ZM676.5 276.5V276.875H676.655L676.765 276.765L676.5 276.5ZM723 230V229.625H722.845L722.735 229.735L723 230ZM784 230L784.265 229.734L784.155 229.625H784V230ZM1157 350.5C1157 351.605 1157.9 352.5 1159 352.5C1160.1 352.5 1161 351.605 1161 350.5C1161 349.395 1160.1 348.5 1159 348.5C1157.9 348.5 1157 349.395 1157 350.5ZM942 318C942 319.105 942.895 320 944 320C945.105 320 946 319.105 946 318C946 316.895 945.105 316 944 316C942.895 316 942 316.895 942 318ZM1096 318V318.375H1096.13L1096.24 318.289L1096 318ZM1150.5 273V272.625H1150.37L1150.26 272.711L1150.5 273ZM1210.5 273C1210.5 274.105 1211.4 275 1212.5 275C1213.6 275 1214.5 274.105 1214.5 273C1214.5 271.895 1213.6 271 1212.5 271C1211.4 271 1210.5 271.895 1210.5 273ZM1133.5 233C1133.5 234.105 1134.4 235 1135.5 235C1136.6 235 1137.5 234.105 1137.5 233C1137.5 231.895 1136.6 231 1135.5 231C1134.4 231 1133.5 231.895 1133.5 233ZM1088.5 280V280.375H1088.66L1088.77 280.265L1088.5 280ZM873 280L872.731 280.261L872.841 280.375H873V280ZM681.5 175L681.502 174.625L681.346 174.624L681.235 174.735L681.5 175ZM629 227.5V227.875H629.155L629.265 227.765L629 227.5ZM535.5 227.5C535.5 228.605 536.395 229.5 537.5 229.5C538.605 229.5 539.5 228.605 539.5 227.5C539.5 226.395 538.605 225.5 537.5 225.5C536.395 225.5 535.5 226.395 535.5 227.5ZM664.5 150C664.5 151.105 665.395 152 666.5 152C667.605 152 668.5 151.105 668.5 150C668.5 148.895 667.605 148 666.5 148C665.395 148 664.5 148.895 664.5 150ZM772.5 150V150.375H772.655L772.765 150.265L772.5 150ZM831.5 91V90.625H831.345L831.235 90.7348L831.5 91ZM932.5 91V91.375H932.655L932.765 91.2652L932.5 91ZM1021.5 2V1.625H1021.34L1021.23 1.73483L1021.5 2ZM1133.5 2C1133.5 3.10457 1134.4 4 1135.5 4C1136.6 4 1137.5 3.10457 1137.5 2C1137.5 0.89543 1136.6 0 1135.5 0C1134.4 0 1133.5 0.89543 1133.5 2ZM829.5 202.5C829.5 203.605 830.395 204.5 831.5 204.5C832.605 204.5 833.5 203.605 833.5 202.5C833.5 201.395 832.605 200.5 831.5 200.5C830.395 200.5 829.5 201.395 829.5 202.5ZM881 252L880.735 252.265L880.845 252.375H881V252ZM1048.5 252C1048.5 253.105 1049.4 254 1050.5 254C1051.6 254 1052.5 253.105 1052.5 252C1052.5 250.895 1051.6 250 1050.5 250C1049.4 250 1048.5 250.895 1048.5 252ZM896 222.5C896 223.605 896.895 224.5 898 224.5C899.105 224.5 900 223.605 900 222.5C900 221.395 899.105 220.5 898 220.5C896.895 220.5 896 221.395 896 222.5ZM1015 222.5V222.875H1015.16L1015.27 222.765L1015 222.5ZM1071 166.5V166.125H1070.84L1070.73 166.235L1071 166.5ZM1120 166.5C1120 167.605 1120.9 168.5 1122 168.5C1123.1 168.5 1124 167.605 1124 166.5C1124 165.395 1123.1 164.5 1122 164.5C1120.9 164.5 1120 165.395 1120 166.5ZM866 195C866 196.105 866.895 197 868 197C869.105 197 870 196.105 870 195C870 193.895 869.105 193 868 193C866.895 193 866 193.895 866 195ZM986 195V195.375H986.155L986.265 195.265L986 195ZM1059 122V121.625H1058.84L1058.73 121.735L1059 122ZM1146.5 122L1146.76 121.731L1146.65 121.625H1146.5V122ZM1184 160.5C1184 161.605 1184.9 162.5 1186 162.5C1187.1 162.5 1188 161.605 1188 160.5C1188 159.395 1187.1 158.5 1186 158.5C1184.9 158.5 1184 159.395 1184 160.5ZM62.7332 391.264L102.733 431.764L103.267 431.236L63.2668 390.736L62.7332 391.264ZM103 431.875H182V431.125H103V431.875ZM35.7348 409.765L80.7348 454.765L81.2652 454.235L36.2652 409.235L35.7348 409.765ZM81 454.875H164.5V454.125H81V454.875ZM33.2348 460.265L67.2348 494.265L67.7652 493.735L33.7652 459.735L33.2348 460.265ZM67.5 494.375H168V493.625H67.5V494.375ZM168.265 494.265L233.765 428.765L233.235 428.235L167.735 493.735L168.265 494.265ZM33.2348 479.265L70.7348 516.765L71.2652 516.235L33.7652 478.735L33.2348 479.265ZM71 516.875H168V516.125H71V516.875ZM168.265 516.765L227.265 457.765L226.735 457.235L167.735 516.235L168.265 516.765ZM227 457.875H454V457.125H227V457.875ZM453.735 457.765L519.735 523.765L520.265 523.235L454.265 457.235L453.735 457.765ZM505.235 351.765L571.235 417.765L571.765 417.235L505.765 351.235L505.235 351.765ZM571.5 417.875H758V417.125H571.5V417.875ZM757.735 417.765L823.235 483.265L823.765 482.735L758.265 417.235L757.735 417.765ZM823.5 483.375H926.5V482.625H823.5V483.375ZM926.765 483.265L983.765 426.265L983.235 425.735L926.235 482.735L926.765 483.265ZM983.5 426.375H1124.5V425.625H983.5V426.375ZM919.5 447.125H837V447.875H919.5V447.125ZM837.265 447.235L779.265 389.235L778.735 389.765L836.735 447.765L837.265 447.235ZM816.235 382.265L855.735 421.765L856.265 421.235L816.765 381.735L816.235 382.265ZM856 421.875H935.5V421.125H856V421.875ZM1106 381.625H894.5V382.375H1106V381.625ZM894.765 381.735L792.765 279.735L792.235 280.265L894.235 382.265L894.765 381.735ZM792.5 279.625H751V280.375H792.5V279.625ZM750.735 279.735L722.735 307.735L723.265 308.265L751.265 280.265L750.735 279.735ZM723 307.625H599.5V308.375H723V307.625ZM599.235 307.735L569.235 337.735L569.765 338.265L599.765 308.265L599.235 307.735ZM588 359.375H716.5V358.625H588V359.375ZM716.765 359.265L765.765 310.265L765.235 309.735L716.235 358.735L716.765 359.265ZM792.5 346.125H771V346.875H792.5V346.125ZM770.735 346.235L735.235 381.735L735.765 382.265L771.265 346.765L770.735 346.235ZM735.5 381.625H592.5V382.375H735.5V381.625ZM644.5 492.375H767.5V491.625H644.5V492.375ZM767.235 492.265L855.735 580.765L856.265 580.235L767.765 491.735L767.235 492.265ZM875.735 558.765L940.235 623.265L940.765 622.735L876.265 558.235L875.735 558.765ZM940.5 623.375H1083.5V622.625H940.5V623.375ZM508.765 328.265L560.265 276.765L559.735 276.235L508.235 327.735L508.765 328.265ZM560 276.875H676.5V276.125H560V276.875ZM676.765 276.765L723.265 230.265L722.735 229.735L676.235 276.235L676.765 276.765ZM723 230.375H784V229.625H723V230.375ZM783.735 230.266C803.902 250.349 834.127 280.474 859.26 305.578C871.827 318.13 883.12 329.426 891.247 337.585C895.31 341.664 898.582 344.959 900.824 347.233C901.946 348.37 902.81 349.252 903.386 349.849C903.675 350.147 903.89 350.373 904.029 350.523C904.099 350.599 904.147 350.652 904.174 350.684C904.189 350.702 904.19 350.705 904.186 350.698C904.184 350.695 904.178 350.685 904.174 350.68C904.17 350.671 904.156 350.644 904.149 350.626C904.138 350.592 904.127 350.478 904.139 350.402C904.198 350.279 904.394 350.14 904.5 350.125V350.875C904.607 350.86 904.805 350.72 904.864 350.596C904.876 350.519 904.864 350.403 904.853 350.367C904.834 350.316 904.808 350.279 904.804 350.273C904.786 350.247 904.764 350.22 904.746 350.199C904.708 350.154 904.651 350.091 904.579 350.013C904.434 349.857 904.215 349.627 903.925 349.327C903.346 348.728 902.48 347.844 901.358 346.706C899.114 344.431 895.842 341.135 891.778 337.056C883.651 328.896 872.357 317.599 859.79 305.047C834.656 279.943 804.431 249.818 784.265 229.734L783.735 230.266ZM904.5 350.125C904.499 350.125 904.499 350.5 904.5 350.875C904.5 350.875 904.501 350.875 904.503 350.875C904.505 350.875 904.507 350.875 904.51 350.875C904.514 350.875 904.517 350.875 904.522 350.875C904.526 350.875 904.531 350.875 904.537 350.875C904.542 350.875 904.549 350.875 904.556 350.875C904.563 350.875 904.57 350.875 904.578 350.875C904.587 350.875 904.596 350.875 904.605 350.875C904.615 350.875 904.625 350.875 904.635 350.875C904.646 350.875 904.658 350.875 904.67 350.875C904.682 350.875 904.694 350.875 904.708 350.875C904.721 350.875 904.735 350.875 904.749 350.875C904.764 350.875 904.779 350.875 904.795 350.875C904.81 350.875 904.827 350.875 904.844 350.875C904.861 350.875 904.879 350.875 904.897 350.875C904.915 350.875 904.934 350.875 904.954 350.875C904.973 350.875 904.993 350.875 905.014 350.875C905.035 350.875 905.056 350.875 905.078 350.875C905.1 350.875 905.123 350.875 905.146 350.875C905.169 350.875 905.193 350.875 905.217 350.875C905.242 350.875 905.267 350.875 905.293 350.875C905.318 350.875 905.345 350.875 905.371 350.875C905.398 350.875 905.426 350.875 905.454 350.875C905.482 350.875 905.511 350.875 905.54 350.875C905.569 350.875 905.599 350.875 905.63 350.875C905.66 350.875 905.691 350.875 905.723 350.875C905.755 350.875 905.787 350.875 905.82 350.875C905.853 350.875 905.886 350.875 905.921 350.875C905.955 350.875 905.989 350.875 906.025 350.875C906.06 350.875 906.096 350.875 906.132 350.875C906.169 350.875 906.206 350.875 906.244 350.875C906.281 350.875 906.32 350.875 906.358 350.875C906.397 350.875 906.437 350.875 906.477 350.875C906.517 350.875 906.557 350.875 906.599 350.875C906.64 350.875 906.682 350.875 906.724 350.875C906.766 350.875 906.809 350.875 906.853 350.875C906.896 350.875 906.94 350.875 906.985 350.875C907.03 350.875 907.075 350.875 907.121 350.875C907.167 350.875 907.213 350.875 907.26 350.875C907.307 350.875 907.355 350.875 907.403 350.875C907.451 350.875 907.5 350.875 907.549 350.875C907.598 350.875 907.648 350.875 907.699 350.875C907.749 350.875 907.8 350.875 907.852 350.875C907.903 350.875 907.955 350.875 908.008 350.875C908.061 350.875 908.114 350.875 908.168 350.875C908.222 350.875 908.276 350.875 908.331 350.875C908.386 350.875 908.442 350.875 908.498 350.875C908.554 350.875 908.61 350.875 908.668 350.875C908.725 350.875 908.783 350.875 908.841 350.875C908.899 350.875 908.958 350.875 909.017 350.875C909.077 350.875 909.137 350.875 909.197 350.875C909.258 350.875 909.319 350.875 909.381 350.875C909.442 350.875 909.505 350.875 909.567 350.875C909.63 350.875 909.693 350.875 909.757 350.875C909.821 350.875 909.885 350.875 909.95 350.875C910.015 350.875 910.081 350.875 910.147 350.875C910.213 350.875 910.279 350.875 910.346 350.875C910.413 350.875 910.481 350.875 910.549 350.875C910.617 350.875 910.686 350.875 910.755 350.875C910.825 350.875 910.894 350.875 910.965 350.875C911.035 350.875 911.106 350.875 911.177 350.875C911.249 350.875 911.321 350.875 911.393 350.875C911.466 350.875 911.539 350.875 911.612 350.875C911.686 350.875 911.76 350.875 911.834 350.875C911.909 350.875 911.984 350.875 912.06 350.875C912.135 350.875 912.211 350.875 912.288 350.875C912.365 350.875 912.442 350.875 912.52 350.875C912.598 350.875 912.676 350.875 912.755 350.875C912.833 350.875 912.913 350.875 912.992 350.875C913.072 350.875 913.153 350.875 913.234 350.875C913.314 350.875 913.396 350.875 913.478 350.875C913.56 350.875 913.642 350.875 913.725 350.875C913.808 350.875 913.891 350.875 913.975 350.875C914.059 350.875 914.143 350.875 914.228 350.875C914.313 350.875 914.399 350.875 914.485 350.875C914.571 350.875 914.657 350.875 914.744 350.875C914.831 350.875 914.919 350.875 915.007 350.875C915.095 350.875 915.183 350.875 915.272 350.875C915.361 350.875 915.451 350.875 915.541 350.875C915.631 350.875 915.721 350.875 915.812 350.875C915.903 350.875 915.995 350.875 916.087 350.875C916.179 350.875 916.271 350.875 916.364 350.875C916.457 350.875 916.55 350.875 916.644 350.875C916.738 350.875 916.833 350.875 916.928 350.875C917.023 350.875 917.118 350.875 917.214 350.875C917.31 350.875 917.406 350.875 917.503 350.875C917.6 350.875 917.698 350.875 917.795 350.875C917.893 350.875 917.992 350.875 918.091 350.875C918.189 350.875 918.289 350.875 918.388 350.875C918.488 350.875 918.589 350.875 918.689 350.875C918.79 350.875 918.891 350.875 918.993 350.875C919.095 350.875 919.197 350.875 919.299 350.875C919.402 350.875 919.505 350.875 919.609 350.875C919.713 350.875 919.817 350.875 919.921 350.875C920.026 350.875 920.131 350.875 920.236 350.875C920.342 350.875 920.448 350.875 920.554 350.875C920.661 350.875 920.767 350.875 920.875 350.875C920.982 350.875 921.09 350.875 921.198 350.875C921.307 350.875 921.415 350.875 921.524 350.875C921.634 350.875 921.743 350.875 921.854 350.875C921.964 350.875 922.074 350.875 922.185 350.875C922.296 350.875 922.408 350.875 922.52 350.875C922.632 350.875 922.744 350.875 922.857 350.875C922.97 350.875 923.083 350.875 923.197 350.875C923.311 350.875 923.425 350.875 923.54 350.875C923.654 350.875 923.77 350.875 923.885 350.875C924.001 350.875 924.117 350.875 924.233 350.875C924.35 350.875 924.467 350.875 924.584 350.875C924.701 350.875 924.819 350.875 924.937 350.875C925.056 350.875 925.174 350.875 925.293 350.875C925.413 350.875 925.532 350.875 925.652 350.875C925.772 350.875 925.893 350.875 926.014 350.875C926.134 350.875 926.256 350.875 926.378 350.875C926.499 350.875 926.621 350.875 926.744 350.875C926.867 350.875 926.99 350.875 927.113 350.875C927.237 350.875 927.361 350.875 927.485 350.875C927.609 350.875 927.734 350.875 927.859 350.875C927.985 350.875 928.11 350.875 928.236 350.875C928.362 350.875 928.489 350.875 928.616 350.875C928.743 350.875 928.87 350.875 928.998 350.875C929.125 350.875 929.254 350.875 929.382 350.875C929.511 350.875 929.64 350.875 929.769 350.875C929.899 350.875 930.029 350.875 930.159 350.875C930.289 350.875 930.42 350.875 930.551 350.875C930.682 350.875 930.813 350.875 930.945 350.875C931.077 350.875 931.21 350.875 931.342 350.875C931.475 350.875 931.608 350.875 931.742 350.875C931.875 350.875 932.009 350.875 932.144 350.875C932.278 350.875 932.413 350.875 932.548 350.875C932.683 350.875 932.819 350.875 932.955 350.875C933.091 350.875 933.227 350.875 933.364 350.875C933.501 350.875 933.638 350.875 933.776 350.875C933.913 350.875 934.051 350.875 934.19 350.875C934.328 350.875 934.467 350.875 934.606 350.875C934.745 350.875 934.885 350.875 935.025 350.875C935.165 350.875 935.305 350.875 935.446 350.875C935.587 350.875 935.728 350.875 935.869 350.875C936.011 350.875 936.153 350.875 936.295 350.875C936.437 350.875 936.58 350.875 936.723 350.875C936.866 350.875 937.01 350.875 937.153 350.875C937.297 350.875 937.442 350.875 937.586 350.875C937.731 350.875 937.876 350.875 938.021 350.875C938.167 350.875 938.312 350.875 938.458 350.875C938.605 350.875 938.751 350.875 938.898 350.875C939.045 350.875 939.192 350.875 939.34 350.875C939.487 350.875 939.635 350.875 939.784 350.875C939.932 350.875 940.081 350.875 940.23 350.875C940.379 350.875 940.529 350.875 940.679 350.875C940.828 350.875 940.979 350.875 941.129 350.875C941.28 350.875 941.431 350.875 941.582 350.875C941.733 350.875 941.885 350.875 942.037 350.875C942.189 350.875 942.342 350.875 942.495 350.875C942.647 350.875 942.8 350.875 942.954 350.875C943.107 350.875 943.261 350.875 943.415 350.875C943.57 350.875 943.724 350.875 943.879 350.875C944.034 350.875 944.189 350.875 944.345 350.875C944.501 350.875 944.657 350.875 944.813 350.875C944.969 350.875 945.126 350.875 945.283 350.875C945.44 350.875 945.598 350.875 945.755 350.875C945.913 350.875 946.071 350.875 946.229 350.875C946.388 350.875 946.547 350.875 946.706 350.875C946.865 350.875 947.024 350.875 947.184 350.875C947.344 350.875 947.504 350.875 947.665 350.875C947.825 350.875 947.986 350.875 948.147 350.875C948.308 350.875 948.47 350.875 948.632 350.875C948.793 350.875 948.956 350.875 949.118 350.875C949.281 350.875 949.443 350.875 949.607 350.875C949.77 350.875 949.933 350.875 950.097 350.875C950.261 350.875 950.425 350.875 950.59 350.875C950.754 350.875 950.919 350.875 951.084 350.875C951.249 350.875 951.415 350.875 951.581 350.875C951.746 350.875 951.912 350.875 952.079 350.875C952.245 350.875 952.412 350.875 952.579 350.875C952.746 350.875 952.914 350.875 953.081 350.875C953.249 350.875 953.417 350.875 953.586 350.875C953.754 350.875 953.923 350.875 954.092 350.875C954.261 350.875 954.43 350.875 954.599 350.875C954.769 350.875 954.939 350.875 955.109 350.875C955.28 350.875 955.45 350.875 955.621 350.875C955.792 350.875 955.963 350.875 956.135 350.875C956.306 350.875 956.478 350.875 956.65 350.875C956.822 350.875 956.994 350.875 957.167 350.875C957.34 350.875 957.513 350.875 957.686 350.875C957.859 350.875 958.033 350.875 958.207 350.875C958.381 350.875 958.555 350.875 958.73 350.875C958.904 350.875 959.079 350.875 959.254 350.875C959.429 350.875 959.605 350.875 959.78 350.875C959.956 350.875 960.132 350.875 960.308 350.875C960.484 350.875 960.661 350.875 960.838 350.875C961.015 350.875 961.192 350.875 961.369 350.875C961.547 350.875 961.725 350.875 961.903 350.875C962.081 350.875 962.259 350.875 962.438 350.875C962.616 350.875 962.795 350.875 962.974 350.875C963.153 350.875 963.333 350.875 963.512 350.875C963.692 350.875 963.872 350.875 964.052 350.875C964.233 350.875 964.413 350.875 964.594 350.875C964.775 350.875 964.956 350.875 965.137 350.875C965.319 350.875 965.5 350.875 965.682 350.875C965.864 350.875 966.047 350.875 966.229 350.875C966.411 350.875 966.594 350.875 966.777 350.875C966.96 350.875 967.144 350.875 967.327 350.875C967.511 350.875 967.695 350.875 967.879 350.875C968.063 350.875 968.247 350.875 968.432 350.875C968.616 350.875 968.801 350.875 968.986 350.875C969.172 350.875 969.357 350.875 969.543 350.875C969.728 350.875 969.914 350.875 970.1 350.875C970.287 350.875 970.473 350.875 970.66 350.875C970.846 350.875 971.033 350.875 971.221 350.875C971.408 350.875 971.595 350.875 971.783 350.875C971.971 350.875 972.159 350.875 972.347 350.875C972.535 350.875 972.724 350.875 972.912 350.875C973.101 350.875 973.29 350.875 973.479 350.875C973.668 350.875 973.858 350.875 974.047 350.875C974.237 350.875 974.427 350.875 974.617 350.875C974.807 350.875 974.998 350.875 975.189 350.875C975.379 350.875 975.57 350.875 975.761 350.875C975.953 350.875 976.144 350.875 976.336 350.875C976.527 350.875 976.719 350.875 976.911 350.875C977.103 350.875 977.296 350.875 977.488 350.875C977.681 350.875 977.874 350.875 978.067 350.875C978.26 350.875 978.453 350.875 978.646 350.875C978.84 350.875 979.034 350.875 979.228 350.875C979.421 350.875 979.616 350.875 979.81 350.875C980.004 350.875 980.199 350.875 980.394 350.875C980.589 350.875 980.784 350.875 980.979 350.875C981.174 350.875 981.37 350.875 981.566 350.875C981.761 350.875 981.957 350.875 982.154 350.875C982.35 350.875 982.546 350.875 982.743 350.875C982.939 350.875 983.136 350.875 983.333 350.875C983.53 350.875 983.728 350.875 983.925 350.875C984.123 350.875 984.32 350.875 984.518 350.875C984.716 350.875 984.914 350.875 985.112 350.875C985.311 350.875 985.509 350.875 985.708 350.875C985.907 350.875 986.106 350.875 986.305 350.875C986.504 350.875 986.703 350.875 986.903 350.875C987.102 350.875 987.302 350.875 987.502 350.875C987.702 350.875 987.902 350.875 988.103 350.875C988.303 350.875 988.503 350.875 988.704 350.875C988.905 350.875 989.106 350.875 989.307 350.875C989.508 350.875 989.709 350.875 989.911 350.875C990.113 350.875 990.314 350.875 990.516 350.875C990.718 350.875 990.92 350.875 991.122 350.875C991.325 350.875 991.527 350.875 991.73 350.875C991.933 350.875 992.135 350.875 992.339 350.875C992.542 350.875 992.745 350.875 992.948 350.875C993.152 350.875 993.355 350.875 993.559 350.875C993.763 350.875 993.967 350.875 994.171 350.875C994.375 350.875 994.579 350.875 994.784 350.875C994.988 350.875 995.193 350.875 995.398 350.875C995.603 350.875 995.808 350.875 996.013 350.875C996.218 350.875 996.424 350.875 996.629 350.875C996.835 350.875 997.04 350.875 997.246 350.875C997.452 350.875 997.658 350.875 997.864 350.875C998.071 350.875 998.277 350.875 998.484 350.875C998.69 350.875 998.897 350.875 999.104 350.875C999.311 350.875 999.518 350.875 999.725 350.875C999.932 350.875 1000.14 350.875 1000.35 350.875C1000.55 350.875 1000.76 350.875 1000.97 350.875C1001.18 350.875 1001.39 350.875 1001.59 350.875C1001.8 350.875 1002.01 350.875 1002.22 350.875C1002.43 350.875 1002.64 350.875 1002.85 350.875C1003.05 350.875 1003.26 350.875 1003.47 350.875C1003.68 350.875 1003.89 350.875 1004.1 350.875C1004.31 350.875 1004.52 350.875 1004.73 350.875C1004.94 350.875 1005.15 350.875 1005.36 350.875C1005.57 350.875 1005.78 350.875 1005.99 350.875C1006.2 350.875 1006.41 350.875 1006.62 350.875C1006.83 350.875 1007.04 350.875 1007.25 350.875C1007.46 350.875 1007.67 350.875 1007.89 350.875C1008.1 350.875 1008.31 350.875 1008.52 350.875C1008.73 350.875 1008.94 350.875 1009.15 350.875C1009.37 350.875 1009.58 350.875 1009.79 350.875C1010 350.875 1010.21 350.875 1010.43 350.875C1010.64 350.875 1010.85 350.875 1011.06 350.875C1011.27 350.875 1011.49 350.875 1011.7 350.875C1011.91 350.875 1012.13 350.875 1012.34 350.875C1012.55 350.875 1012.76 350.875 1012.98 350.875C1013.19 350.875 1013.4 350.875 1013.62 350.875C1013.83 350.875 1014.05 350.875 1014.26 350.875C1014.47 350.875 1014.69 350.875 1014.9 350.875C1015.11 350.875 1015.33 350.875 1015.54 350.875C1015.76 350.875 1015.97 350.875 1016.19 350.875C1016.4 350.875 1016.61 350.875 1016.83 350.875C1017.04 350.875 1017.26 350.875 1017.47 350.875C1017.69 350.875 1017.9 350.875 1018.12 350.875C1018.33 350.875 1018.55 350.875 1018.76 350.875C1018.98 350.875 1019.19 350.875 1019.41 350.875C1019.63 350.875 1019.84 350.875 1020.06 350.875C1020.27 350.875 1020.49 350.875 1020.7 350.875C1020.92 350.875 1021.14 350.875 1021.35 350.875C1021.57 350.875 1021.78 350.875 1022 350.875C1022.22 350.875 1022.43 350.875 1022.65 350.875C1022.87 350.875 1023.08 350.875 1023.3 350.875C1023.52 350.875 1023.73 350.875 1023.95 350.875C1024.17 350.875 1024.38 350.875 1024.6 350.875C1024.82 350.875 1025.04 350.875 1025.25 350.875C1025.47 350.875 1025.69 350.875 1025.9 350.875C1026.12 350.875 1026.34 350.875 1026.56 350.875C1026.77 350.875 1026.99 350.875 1027.21 350.875C1027.43 350.875 1027.65 350.875 1027.86 350.875C1028.08 350.875 1028.3 350.875 1028.52 350.875C1028.73 350.875 1028.95 350.875 1029.17 350.875C1029.39 350.875 1029.61 350.875 1029.83 350.875C1030.04 350.875 1030.26 350.875 1030.48 350.875C1030.7 350.875 1030.92 350.875 1031.14 350.875C1031.36 350.875 1031.57 350.875 1031.79 350.875C1032.01 350.875 1032.23 350.875 1032.45 350.875C1032.67 350.875 1032.89 350.875 1033.11 350.875C1033.33 350.875 1033.54 350.875 1033.76 350.875C1033.98 350.875 1034.2 350.875 1034.42 350.875C1034.64 350.875 1034.86 350.875 1035.08 350.875C1035.3 350.875 1035.52 350.875 1035.74 350.875C1035.96 350.875 1036.18 350.875 1036.4 350.875C1036.62 350.875 1036.84 350.875 1037.06 350.875C1037.28 350.875 1037.49 350.875 1037.71 350.875C1037.93 350.875 1038.15 350.875 1038.37 350.875C1038.59 350.875 1038.81 350.875 1039.03 350.875C1039.25 350.875 1039.47 350.875 1039.69 350.875C1039.91 350.875 1040.13 350.875 1040.35 350.875C1040.58 350.875 1040.8 350.875 1041.02 350.875C1041.24 350.875 1041.46 350.875 1041.68 350.875C1041.9 350.875 1042.12 350.875 1042.34 350.875C1042.56 350.875 1042.78 350.875 1043 350.875C1043.22 350.875 1043.44 350.875 1043.66 350.875C1043.88 350.875 1044.1 350.875 1044.32 350.875C1044.54 350.875 1044.76 350.875 1044.98 350.875C1045.21 350.875 1045.43 350.875 1045.65 350.875C1045.87 350.875 1046.09 350.875 1046.31 350.875C1046.53 350.875 1046.75 350.875 1046.97 350.875C1047.19 350.875 1047.41 350.875 1047.63 350.875C1047.86 350.875 1048.08 350.875 1048.3 350.875C1048.52 350.875 1048.74 350.875 1048.96 350.875C1049.18 350.875 1049.4 350.875 1049.62 350.875C1049.84 350.875 1050.07 350.875 1050.29 350.875C1050.51 350.875 1050.73 350.875 1050.95 350.875C1051.17 350.875 1051.39 350.875 1051.61 350.875C1051.83 350.875 1052.06 350.875 1052.28 350.875C1052.5 350.875 1052.72 350.875 1052.94 350.875C1053.16 350.875 1053.38 350.875 1053.6 350.875C1053.82 350.875 1054.05 350.875 1054.27 350.875C1054.49 350.875 1054.71 350.875 1054.93 350.875C1055.15 350.875 1055.37 350.875 1055.59 350.875C1055.82 350.875 1056.04 350.875 1056.26 350.875C1056.48 350.875 1056.7 350.875 1056.92 350.875C1057.14 350.875 1057.36 350.875 1057.58 350.875C1057.81 350.875 1058.03 350.875 1058.25 350.875C1058.47 350.875 1058.69 350.875 1058.91 350.875C1059.13 350.875 1059.35 350.875 1059.57 350.875C1059.8 350.875 1060.02 350.875 1060.24 350.875C1060.46 350.875 1060.68 350.875 1060.9 350.875C1061.12 350.875 1061.34 350.875 1061.56 350.875C1061.79 350.875 1062.01 350.875 1062.23 350.875C1062.45 350.875 1062.67 350.875 1062.89 350.875C1063.11 350.875 1063.33 350.875 1063.55 350.875C1063.77 350.875 1063.99 350.875 1064.22 350.875C1064.44 350.875 1064.66 350.875 1064.88 350.875C1065.1 350.875 1065.32 350.875 1065.54 350.875C1065.76 350.875 1065.98 350.875 1066.2 350.875C1066.42 350.875 1066.64 350.875 1066.86 350.875C1067.09 350.875 1067.31 350.875 1067.53 350.875C1067.75 350.875 1067.97 350.875 1068.19 350.875C1068.41 350.875 1068.63 350.875 1068.85 350.875C1069.07 350.875 1069.29 350.875 1069.51 350.875C1069.73 350.875 1069.95 350.875 1070.17 350.875C1070.39 350.875 1070.61 350.875 1070.83 350.875C1071.05 350.875 1071.27 350.875 1071.49 350.875C1071.71 350.875 1071.93 350.875 1072.15 350.875C1072.37 350.875 1072.59 350.875 1072.81 350.875C1073.03 350.875 1073.25 350.875 1073.47 350.875C1073.69 350.875 1073.91 350.875 1074.13 350.875C1074.35 350.875 1074.57 350.875 1074.79 350.875C1075.01 350.875 1075.23 350.875 1075.45 350.875C1075.67 350.875 1075.89 350.875 1076.11 350.875C1076.32 350.875 1076.54 350.875 1076.76 350.875C1076.98 350.875 1077.2 350.875 1077.42 350.875C1077.64 350.875 1077.86 350.875 1078.08 350.875C1078.3 350.875 1078.52 350.875 1078.73 350.875C1078.95 350.875 1079.17 350.875 1079.39 350.875C1079.61 350.875 1079.83 350.875 1080.05 350.875C1080.26 350.875 1080.48 350.875 1080.7 350.875C1080.92 350.875 1081.14 350.875 1081.36 350.875C1081.57 350.875 1081.79 350.875 1082.01 350.875C1082.23 350.875 1082.45 350.875 1082.67 350.875C1082.88 350.875 1083.1 350.875 1083.32 350.875C1083.54 350.875 1083.75 350.875 1083.97 350.875C1084.19 350.875 1084.41 350.875 1084.62 350.875C1084.84 350.875 1085.06 350.875 1085.28 350.875C1085.49 350.875 1085.71 350.875 1085.93 350.875C1086.15 350.875 1086.36 350.875 1086.58 350.875C1086.8 350.875 1087.01 350.875 1087.23 350.875C1087.45 350.875 1087.66 350.875 1087.88 350.875C1088.1 350.875 1088.31 350.875 1088.53 350.875C1088.75 350.875 1088.96 350.875 1089.18 350.875C1089.39 350.875 1089.61 350.875 1089.83 350.875C1090.04 350.875 1090.26 350.875 1090.47 350.875C1090.69 350.875 1090.91 350.875 1091.12 350.875C1091.34 350.875 1091.55 350.875 1091.77 350.875C1091.98 350.875 1092.2 350.875 1092.41 350.875C1092.63 350.875 1092.84 350.875 1093.06 350.875C1093.27 350.875 1093.49 350.875 1093.7 350.875C1093.92 350.875 1094.13 350.875 1094.35 350.875C1094.56 350.875 1094.77 350.875 1094.99 350.875C1095.2 350.875 1095.42 350.875 1095.63 350.875C1095.85 350.875 1096.06 350.875 1096.27 350.875C1096.49 350.875 1096.7 350.875 1096.91 350.875C1097.13 350.875 1097.34 350.875 1097.55 350.875C1097.77 350.875 1097.98 350.875 1098.19 350.875C1098.41 350.875 1098.62 350.875 1098.83 350.875C1099.05 350.875 1099.26 350.875 1099.47 350.875C1099.68 350.875 1099.9 350.875 1100.11 350.875C1100.32 350.875 1100.53 350.875 1100.74 350.875C1100.96 350.875 1101.17 350.875 1101.38 350.875C1101.59 350.875 1101.8 350.875 1102.02 350.875C1102.23 350.875 1102.44 350.875 1102.65 350.875C1102.86 350.875 1103.07 350.875 1103.28 350.875C1103.49 350.875 1103.7 350.875 1103.92 350.875C1104.13 350.875 1104.34 350.875 1104.55 350.875C1104.76 350.875 1104.97 350.875 1105.18 350.875C1105.39 350.875 1105.6 350.875 1105.81 350.875C1106.02 350.875 1106.23 350.875 1106.44 350.875C1106.65 350.875 1106.86 350.875 1107.06 350.875C1107.27 350.875 1107.48 350.875 1107.69 350.875C1107.9 350.875 1108.11 350.875 1108.32 350.875C1108.53 350.875 1108.74 350.875 1108.94 350.875C1109.15 350.875 1109.36 350.875 1109.57 350.875C1109.78 350.875 1109.98 350.875 1110.19 350.875C1110.4 350.875 1110.61 350.875 1110.81 350.875C1111.02 350.875 1111.23 350.875 1111.44 350.875C1111.64 350.875 1111.85 350.875 1112.06 350.875C1112.26 350.875 1112.47 350.875 1112.68 350.875C1112.88 350.875 1113.09 350.875 1113.29 350.875C1113.5 350.875 1113.71 350.875 1113.91 350.875C1114.12 350.875 1114.32 350.875 1114.53 350.875C1114.73 350.875 1114.94 350.875 1115.14 350.875C1115.35 350.875 1115.55 350.875 1115.76 350.875C1115.96 350.875 1116.17 350.875 1116.37 350.875C1116.58 350.875 1116.78 350.875 1116.98 350.875C1117.19 350.875 1117.39 350.875 1117.59 350.875C1117.8 350.875 1118 350.875 1118.2 350.875C1118.41 350.875 1118.61 350.875 1118.81 350.875C1119.02 350.875 1119.22 350.875 1119.42 350.875C1119.62 350.875 1119.83 350.875 1120.03 350.875C1120.23 350.875 1120.43 350.875 1120.63 350.875C1120.84 350.875 1121.04 350.875 1121.24 350.875C1121.44 350.875 1121.64 350.875 1121.84 350.875C1122.04 350.875 1122.24 350.875 1122.44 350.875C1122.64 350.875 1122.84 350.875 1123.04 350.875C1123.24 350.875 1123.44 350.875 1123.64 350.875C1123.84 350.875 1124.04 350.875 1124.24 350.875C1124.44 350.875 1124.64 350.875 1124.84 350.875C1125.04 350.875 1125.24 350.875 1125.44 350.875C1125.63 350.875 1125.83 350.875 1126.03 350.875C1126.23 350.875 1126.43 350.875 1126.62 350.875C1126.82 350.875 1127.02 350.875 1127.22 350.875C1127.41 350.875 1127.61 350.875 1127.81 350.875C1128 350.875 1128.2 350.875 1128.4 350.875C1128.59 350.875 1128.79 350.875 1128.98 350.875C1129.18 350.875 1129.38 350.875 1129.57 350.875C1129.77 350.875 1129.96 350.875 1130.16 350.875C1130.35 350.875 1130.55 350.875 1130.74 350.875C1130.94 350.875 1131.13 350.875 1131.32 350.875C1131.52 350.875 1131.71 350.875 1131.91 350.875C1132.1 350.875 1132.29 350.875 1132.49 350.875C1132.68 350.875 1132.87 350.875 1133.07 350.875C1133.26 350.875 1133.45 350.875 1133.64 350.875C1133.84 350.875 1134.03 350.875 1134.22 350.875C1134.41 350.875 1134.6 350.875 1134.79 350.875C1134.98 350.875 1135.18 350.875 1135.37 350.875C1135.56 350.875 1135.75 350.875 1135.94 350.875C1136.13 350.875 1136.32 350.875 1136.51 350.875C1136.7 350.875 1136.89 350.875 1137.08 350.875C1137.27 350.875 1137.46 350.875 1137.65 350.875C1137.83 350.875 1138.02 350.875 1138.21 350.875C1138.4 350.875 1138.59 350.875 1138.78 350.875C1138.96 350.875 1139.15 350.875 1139.34 350.875C1139.53 350.875 1139.71 350.875 1139.9 350.875C1140.09 350.875 1140.27 350.875 1140.46 350.875C1140.65 350.875 1140.83 350.875 1141.02 350.875C1141.2 350.875 1141.39 350.875 1141.57 350.875C1141.76 350.875 1141.95 350.875 1142.13 350.875C1142.31 350.875 1142.5 350.875 1142.68 350.875C1142.87 350.875 1143.05 350.875 1143.24 350.875C1143.42 350.875 1143.6 350.875 1143.79 350.875C1143.97 350.875 1144.15 350.875 1144.33 350.875C1144.52 350.875 1144.7 350.875 1144.88 350.875C1145.06 350.875 1145.25 350.875 1145.43 350.875C1145.61 350.875 1145.79 350.875 1145.97 350.875C1146.15 350.875 1146.33 350.875 1146.51 350.875C1146.69 350.875 1146.87 350.875 1147.05 350.875C1147.23 350.875 1147.41 350.875 1147.59 350.875C1147.77 350.875 1147.95 350.875 1148.13 350.875C1148.31 350.875 1148.49 350.875 1148.67 350.875C1148.84 350.875 1149.02 350.875 1149.2 350.875C1149.38 350.875 1149.55 350.875 1149.73 350.875C1149.91 350.875 1150.09 350.875 1150.26 350.875C1150.44 350.875 1150.61 350.875 1150.79 350.875C1150.97 350.875 1151.14 350.875 1151.32 350.875C1151.49 350.875 1151.67 350.875 1151.84 350.875C1152.02 350.875 1152.19 350.875 1152.37 350.875C1152.54 350.875 1152.71 350.875 1152.89 350.875C1153.06 350.875 1153.23 350.875 1153.41 350.875C1153.58 350.875 1153.75 350.875 1153.92 350.875C1154.1 350.875 1154.27 350.875 1154.44 350.875C1154.61 350.875 1154.78 350.875 1154.95 350.875C1155.13 350.875 1155.3 350.875 1155.47 350.875C1155.64 350.875 1155.81 350.875 1155.98 350.875C1156.15 350.875 1156.32 350.875 1156.49 350.875C1156.65 350.875 1156.82 350.875 1156.99 350.875C1157.16 350.875 1157.33 350.875 1157.5 350.875C1157.67 350.875 1157.83 350.875 1158 350.875C1158.17 350.875 1158.33 350.875 1158.5 350.875C1158.67 350.875 1158.83 350.875 1159 350.875V350.125C1158.83 350.125 1158.67 350.125 1158.5 350.125C1158.33 350.125 1158.17 350.125 1158 350.125C1157.83 350.125 1157.67 350.125 1157.5 350.125C1157.33 350.125 1157.16 350.125 1156.99 350.125C1156.82 350.125 1156.65 350.125 1156.49 350.125C1156.32 350.125 1156.15 350.125 1155.98 350.125C1155.81 350.125 1155.64 350.125 1155.47 350.125C1155.3 350.125 1155.13 350.125 1154.95 350.125C1154.78 350.125 1154.61 350.125 1154.44 350.125C1154.27 350.125 1154.1 350.125 1153.92 350.125C1153.75 350.125 1153.58 350.125 1153.41 350.125C1153.23 350.125 1153.06 350.125 1152.89 350.125C1152.71 350.125 1152.54 350.125 1152.37 350.125C1152.19 350.125 1152.02 350.125 1151.84 350.125C1151.67 350.125 1151.49 350.125 1151.32 350.125C1151.14 350.125 1150.97 350.125 1150.79 350.125C1150.61 350.125 1150.44 350.125 1150.26 350.125C1150.09 350.125 1149.91 350.125 1149.73 350.125C1149.55 350.125 1149.38 350.125 1149.2 350.125C1149.02 350.125 1148.84 350.125 1148.67 350.125C1148.49 350.125 1148.31 350.125 1148.13 350.125C1147.95 350.125 1147.77 350.125 1147.59 350.125C1147.41 350.125 1147.23 350.125 1147.05 350.125C1146.87 350.125 1146.69 350.125 1146.51 350.125C1146.33 350.125 1146.15 350.125 1145.97 350.125C1145.79 350.125 1145.61 350.125 1145.43 350.125C1145.25 350.125 1145.06 350.125 1144.88 350.125C1144.7 350.125 1144.52 350.125 1144.33 350.125C1144.15 350.125 1143.97 350.125 1143.79 350.125C1143.6 350.125 1143.42 350.125 1143.24 350.125C1143.05 350.125 1142.87 350.125 1142.68 350.125C1142.5 350.125 1142.31 350.125 1142.13 350.125C1141.95 350.125 1141.76 350.125 1141.57 350.125C1141.39 350.125 1141.2 350.125 1141.02 350.125C1140.83 350.125 1140.65 350.125 1140.46 350.125C1140.27 350.125 1140.09 350.125 1139.9 350.125C1139.71 350.125 1139.53 350.125 1139.34 350.125C1139.15 350.125 1138.96 350.125 1138.78 350.125C1138.59 350.125 1138.4 350.125 1138.21 350.125C1138.02 350.125 1137.83 350.125 1137.65 350.125C1137.46 350.125 1137.27 350.125 1137.08 350.125C1136.89 350.125 1136.7 350.125 1136.51 350.125C1136.32 350.125 1136.13 350.125 1135.94 350.125C1135.75 350.125 1135.56 350.125 1135.37 350.125C1135.18 350.125 1134.98 350.125 1134.79 350.125C1134.6 350.125 1134.41 350.125 1134.22 350.125C1134.03 350.125 1133.84 350.125 1133.64 350.125C1133.45 350.125 1133.26 350.125 1133.07 350.125C1132.87 350.125 1132.68 350.125 1132.49 350.125C1132.29 350.125 1132.1 350.125 1131.91 350.125C1131.71 350.125 1131.52 350.125 1131.32 350.125C1131.13 350.125 1130.94 350.125 1130.74 350.125C1130.55 350.125 1130.35 350.125 1130.16 350.125C1129.96 350.125 1129.77 350.125 1129.57 350.125C1129.38 350.125 1129.18 350.125 1128.98 350.125C1128.79 350.125 1128.59 350.125 1128.4 350.125C1128.2 350.125 1128 350.125 1127.81 350.125C1127.61 350.125 1127.41 350.125 1127.22 350.125C1127.02 350.125 1126.82 350.125 1126.62 350.125C1126.43 350.125 1126.23 350.125 1126.03 350.125C1125.83 350.125 1125.63 350.125 1125.44 350.125C1125.24 350.125 1125.04 350.125 1124.84 350.125C1124.64 350.125 1124.44 350.125 1124.24 350.125C1124.04 350.125 1123.84 350.125 1123.64 350.125C1123.44 350.125 1123.24 350.125 1123.04 350.125C1122.84 350.125 1122.64 350.125 1122.44 350.125C1122.24 350.125 1122.04 350.125 1121.84 350.125C1121.64 350.125 1121.44 350.125 1121.24 350.125C1121.04 350.125 1120.84 350.125 1120.63 350.125C1120.43 350.125 1120.23 350.125 1120.03 350.125C1119.83 350.125 1119.62 350.125 1119.42 350.125C1119.22 350.125 1119.02 350.125 1118.81 350.125C1118.61 350.125 1118.41 350.125 1118.2 350.125C1118 350.125 1117.8 350.125 1117.59 350.125C1117.39 350.125 1117.19 350.125 1116.98 350.125C1116.78 350.125 1116.58 350.125 1116.37 350.125C1116.17 350.125 1115.96 350.125 1115.76 350.125C1115.55 350.125 1115.35 350.125 1115.14 350.125C1114.94 350.125 1114.73 350.125 1114.53 350.125C1114.32 350.125 1114.12 350.125 1113.91 350.125C1113.71 350.125 1113.5 350.125 1113.29 350.125C1113.09 350.125 1112.88 350.125 1112.68 350.125C1112.47 350.125 1112.26 350.125 1112.06 350.125C1111.85 350.125 1111.64 350.125 1111.44 350.125C1111.23 350.125 1111.02 350.125 1110.81 350.125C1110.61 350.125 1110.4 350.125 1110.19 350.125C1109.98 350.125 1109.78 350.125 1109.57 350.125C1109.36 350.125 1109.15 350.125 1108.94 350.125C1108.74 350.125 1108.53 350.125 1108.32 350.125C1108.11 350.125 1107.9 350.125 1107.69 350.125C1107.48 350.125 1107.27 350.125 1107.06 350.125C1106.86 350.125 1106.65 350.125 1106.44 350.125C1106.23 350.125 1106.02 350.125 1105.81 350.125C1105.6 350.125 1105.39 350.125 1105.18 350.125C1104.97 350.125 1104.76 350.125 1104.55 350.125C1104.34 350.125 1104.13 350.125 1103.92 350.125C1103.7 350.125 1103.49 350.125 1103.28 350.125C1103.07 350.125 1102.86 350.125 1102.65 350.125C1102.44 350.125 1102.23 350.125 1102.02 350.125C1101.8 350.125 1101.59 350.125 1101.38 350.125C1101.17 350.125 1100.96 350.125 1100.74 350.125C1100.53 350.125 1100.32 350.125 1100.11 350.125C1099.9 350.125 1099.68 350.125 1099.47 350.125C1099.26 350.125 1099.05 350.125 1098.83 350.125C1098.62 350.125 1098.41 350.125 1098.19 350.125C1097.98 350.125 1097.77 350.125 1097.55 350.125C1097.34 350.125 1097.13 350.125 1096.91 350.125C1096.7 350.125 1096.49 350.125 1096.27 350.125C1096.06 350.125 1095.85 350.125 1095.63 350.125C1095.42 350.125 1095.2 350.125 1094.99 350.125C1094.77 350.125 1094.56 350.125 1094.35 350.125C1094.13 350.125 1093.92 350.125 1093.7 350.125C1093.49 350.125 1093.27 350.125 1093.06 350.125C1092.84 350.125 1092.63 350.125 1092.41 350.125C1092.2 350.125 1091.98 350.125 1091.77 350.125C1091.55 350.125 1091.34 350.125 1091.12 350.125C1090.91 350.125 1090.69 350.125 1090.47 350.125C1090.26 350.125 1090.04 350.125 1089.83 350.125C1089.61 350.125 1089.39 350.125 1089.18 350.125C1088.96 350.125 1088.75 350.125 1088.53 350.125C1088.31 350.125 1088.1 350.125 1087.88 350.125C1087.66 350.125 1087.45 350.125 1087.23 350.125C1087.01 350.125 1086.8 350.125 1086.58 350.125C1086.36 350.125 1086.15 350.125 1085.93 350.125C1085.71 350.125 1085.49 350.125 1085.28 350.125C1085.06 350.125 1084.84 350.125 1084.62 350.125C1084.41 350.125 1084.19 350.125 1083.97 350.125C1083.75 350.125 1083.54 350.125 1083.32 350.125C1083.1 350.125 1082.88 350.125 1082.67 350.125C1082.45 350.125 1082.23 350.125 1082.01 350.125C1081.79 350.125 1081.57 350.125 1081.36 350.125C1081.14 350.125 1080.92 350.125 1080.7 350.125C1080.48 350.125 1080.26 350.125 1080.05 350.125C1079.83 350.125 1079.61 350.125 1079.39 350.125C1079.17 350.125 1078.95 350.125 1078.73 350.125C1078.52 350.125 1078.3 350.125 1078.08 350.125C1077.86 350.125 1077.64 350.125 1077.42 350.125C1077.2 350.125 1076.98 350.125 1076.76 350.125C1076.54 350.125 1076.32 350.125 1076.11 350.125C1075.89 350.125 1075.67 350.125 1075.45 350.125C1075.23 350.125 1075.01 350.125 1074.79 350.125C1074.57 350.125 1074.35 350.125 1074.13 350.125C1073.91 350.125 1073.69 350.125 1073.47 350.125C1073.25 350.125 1073.03 350.125 1072.81 350.125C1072.59 350.125 1072.37 350.125 1072.15 350.125C1071.93 350.125 1071.71 350.125 1071.49 350.125C1071.27 350.125 1071.05 350.125 1070.83 350.125C1070.61 350.125 1070.39 350.125 1070.17 350.125C1069.95 350.125 1069.73 350.125 1069.51 350.125C1069.29 350.125 1069.07 350.125 1068.85 350.125C1068.63 350.125 1068.41 350.125 1068.19 350.125C1067.97 350.125 1067.75 350.125 1067.53 350.125C1067.31 350.125 1067.09 350.125 1066.86 350.125C1066.64 350.125 1066.42 350.125 1066.2 350.125C1065.98 350.125 1065.76 350.125 1065.54 350.125C1065.32 350.125 1065.1 350.125 1064.88 350.125C1064.66 350.125 1064.44 350.125 1064.22 350.125C1063.99 350.125 1063.77 350.125 1063.55 350.125C1063.33 350.125 1063.11 350.125 1062.89 350.125C1062.67 350.125 1062.45 350.125 1062.23 350.125C1062.01 350.125 1061.79 350.125 1061.56 350.125C1061.34 350.125 1061.12 350.125 1060.9 350.125C1060.68 350.125 1060.46 350.125 1060.24 350.125C1060.02 350.125 1059.8 350.125 1059.57 350.125C1059.35 350.125 1059.13 350.125 1058.91 350.125C1058.69 350.125 1058.47 350.125 1058.25 350.125C1058.03 350.125 1057.81 350.125 1057.58 350.125C1057.36 350.125 1057.14 350.125 1056.92 350.125C1056.7 350.125 1056.48 350.125 1056.26 350.125C1056.04 350.125 1055.82 350.125 1055.59 350.125C1055.37 350.125 1055.15 350.125 1054.93 350.125C1054.71 350.125 1054.49 350.125 1054.27 350.125C1054.05 350.125 1053.82 350.125 1053.6 350.125C1053.38 350.125 1053.16 350.125 1052.94 350.125C1052.72 350.125 1052.5 350.125 1052.28 350.125C1052.06 350.125 1051.83 350.125 1051.61 350.125C1051.39 350.125 1051.17 350.125 1050.95 350.125C1050.73 350.125 1050.51 350.125 1050.29 350.125C1050.07 350.125 1049.84 350.125 1049.62 350.125C1049.4 350.125 1049.18 350.125 1048.96 350.125C1048.74 350.125 1048.52 350.125 1048.3 350.125C1048.08 350.125 1047.86 350.125 1047.63 350.125C1047.41 350.125 1047.19 350.125 1046.97 350.125C1046.75 350.125 1046.53 350.125 1046.31 350.125C1046.09 350.125 1045.87 350.125 1045.65 350.125C1045.43 350.125 1045.21 350.125 1044.98 350.125C1044.76 350.125 1044.54 350.125 1044.32 350.125C1044.1 350.125 1043.88 350.125 1043.66 350.125C1043.44 350.125 1043.22 350.125 1043 350.125C1042.78 350.125 1042.56 350.125 1042.34 350.125C1042.12 350.125 1041.9 350.125 1041.68 350.125C1041.46 350.125 1041.24 350.125 1041.02 350.125C1040.8 350.125 1040.58 350.125 1040.35 350.125C1040.13 350.125 1039.91 350.125 1039.69 350.125C1039.47 350.125 1039.25 350.125 1039.03 350.125C1038.81 350.125 1038.59 350.125 1038.37 350.125C1038.15 350.125 1037.93 350.125 1037.71 350.125C1037.49 350.125 1037.28 350.125 1037.06 350.125C1036.84 350.125 1036.62 350.125 1036.4 350.125C1036.18 350.125 1035.96 350.125 1035.74 350.125C1035.52 350.125 1035.3 350.125 1035.08 350.125C1034.86 350.125 1034.64 350.125 1034.42 350.125C1034.2 350.125 1033.98 350.125 1033.76 350.125C1033.54 350.125 1033.33 350.125 1033.11 350.125C1032.89 350.125 1032.67 350.125 1032.45 350.125C1032.23 350.125 1032.01 350.125 1031.79 350.125C1031.57 350.125 1031.36 350.125 1031.14 350.125C1030.92 350.125 1030.7 350.125 1030.48 350.125C1030.26 350.125 1030.04 350.125 1029.83 350.125C1029.61 350.125 1029.39 350.125 1029.17 350.125C1028.95 350.125 1028.73 350.125 1028.52 350.125C1028.3 350.125 1028.08 350.125 1027.86 350.125C1027.65 350.125 1027.43 350.125 1027.21 350.125C1026.99 350.125 1026.77 350.125 1026.56 350.125C1026.34 350.125 1026.12 350.125 1025.9 350.125C1025.69 350.125 1025.47 350.125 1025.25 350.125C1025.04 350.125 1024.82 350.125 1024.6 350.125C1024.38 350.125 1024.17 350.125 1023.95 350.125C1023.73 350.125 1023.52 350.125 1023.3 350.125C1023.08 350.125 1022.87 350.125 1022.65 350.125C1022.43 350.125 1022.22 350.125 1022 350.125C1021.78 350.125 1021.57 350.125 1021.35 350.125C1021.14 350.125 1020.92 350.125 1020.7 350.125C1020.49 350.125 1020.27 350.125 1020.06 350.125C1019.84 350.125 1019.63 350.125 1019.41 350.125C1019.19 350.125 1018.98 350.125 1018.76 350.125C1018.55 350.125 1018.33 350.125 1018.12 350.125C1017.9 350.125 1017.69 350.125 1017.47 350.125C1017.26 350.125 1017.04 350.125 1016.83 350.125C1016.61 350.125 1016.4 350.125 1016.19 350.125C1015.97 350.125 1015.76 350.125 1015.54 350.125C1015.33 350.125 1015.11 350.125 1014.9 350.125C1014.69 350.125 1014.47 350.125 1014.26 350.125C1014.05 350.125 1013.83 350.125 1013.62 350.125C1013.4 350.125 1013.19 350.125 1012.98 350.125C1012.76 350.125 1012.55 350.125 1012.34 350.125C1012.13 350.125 1011.91 350.125 1011.7 350.125C1011.49 350.125 1011.27 350.125 1011.06 350.125C1010.85 350.125 1010.64 350.125 1010.43 350.125C1010.21 350.125 1010 350.125 1009.79 350.125C1009.58 350.125 1009.37 350.125 1009.15 350.125C1008.94 350.125 1008.73 350.125 1008.52 350.125C1008.31 350.125 1008.1 350.125 1007.89 350.125C1007.67 350.125 1007.46 350.125 1007.25 350.125C1007.04 350.125 1006.83 350.125 1006.62 350.125C1006.41 350.125 1006.2 350.125 1005.99 350.125C1005.78 350.125 1005.57 350.125 1005.36 350.125C1005.15 350.125 1004.94 350.125 1004.73 350.125C1004.52 350.125 1004.31 350.125 1004.1 350.125C1003.89 350.125 1003.68 350.125 1003.47 350.125C1003.26 350.125 1003.05 350.125 1002.85 350.125C1002.64 350.125 1002.43 350.125 1002.22 350.125C1002.01 350.125 1001.8 350.125 1001.59 350.125C1001.39 350.125 1001.18 350.125 1000.97 350.125C1000.76 350.125 1000.55 350.125 1000.35 350.125C1000.14 350.125 999.932 350.125 999.725 350.125C999.518 350.125 999.311 350.125 999.104 350.125C998.897 350.125 998.69 350.125 998.484 350.125C998.277 350.125 998.071 350.125 997.864 350.125C997.658 350.125 997.452 350.125 997.246 350.125C997.04 350.125 996.835 350.125 996.629 350.125C996.424 350.125 996.218 350.125 996.013 350.125C995.808 350.125 995.603 350.125 995.398 350.125C995.193 350.125 994.988 350.125 994.784 350.125C994.579 350.125 994.375 350.125 994.171 350.125C993.967 350.125 993.763 350.125 993.559 350.125C993.355 350.125 993.152 350.125 992.948 350.125C992.745 350.125 992.542 350.125 992.339 350.125C992.135 350.125 991.933 350.125 991.73 350.125C991.527 350.125 991.325 350.125 991.122 350.125C990.92 350.125 990.718 350.125 990.516 350.125C990.314 350.125 990.113 350.125 989.911 350.125C989.709 350.125 989.508 350.125 989.307 350.125C989.106 350.125 988.905 350.125 988.704 350.125C988.503 350.125 988.303 350.125 988.103 350.125C987.902 350.125 987.702 350.125 987.502 350.125C987.302 350.125 987.102 350.125 986.903 350.125C986.703 350.125 986.504 350.125 986.305 350.125C986.106 350.125 985.907 350.125 985.708 350.125C985.509 350.125 985.311 350.125 985.112 350.125C984.914 350.125 984.716 350.125 984.518 350.125C984.32 350.125 984.123 350.125 983.925 350.125C983.728 350.125 983.53 350.125 983.333 350.125C983.136 350.125 982.939 350.125 982.743 350.125C982.546 350.125 982.35 350.125 982.154 350.125C981.957 350.125 981.761 350.125 981.566 350.125C981.37 350.125 981.174 350.125 980.979 350.125C980.784 350.125 980.589 350.125 980.394 350.125C980.199 350.125 980.004 350.125 979.81 350.125C979.616 350.125 979.421 350.125 979.228 350.125C979.034 350.125 978.84 350.125 978.646 350.125C978.453 350.125 978.26 350.125 978.067 350.125C977.874 350.125 977.681 350.125 977.488 350.125C977.296 350.125 977.103 350.125 976.911 350.125C976.719 350.125 976.527 350.125 976.336 350.125C976.144 350.125 975.953 350.125 975.761 350.125C975.57 350.125 975.379 350.125 975.189 350.125C974.998 350.125 974.807 350.125 974.617 350.125C974.427 350.125 974.237 350.125 974.047 350.125C973.858 350.125 973.668 350.125 973.479 350.125C973.29 350.125 973.101 350.125 972.912 350.125C972.724 350.125 972.535 350.125 972.347 350.125C972.159 350.125 971.971 350.125 971.783 350.125C971.595 350.125 971.408 350.125 971.221 350.125C971.033 350.125 970.846 350.125 970.66 350.125C970.473 350.125 970.287 350.125 970.1 350.125C969.914 350.125 969.728 350.125 969.543 350.125C969.357 350.125 969.172 350.125 968.986 350.125C968.801 350.125 968.616 350.125 968.432 350.125C968.247 350.125 968.063 350.125 967.879 350.125C967.695 350.125 967.511 350.125 967.327 350.125C967.144 350.125 966.96 350.125 966.777 350.125C966.594 350.125 966.411 350.125 966.229 350.125C966.047 350.125 965.864 350.125 965.682 350.125C965.5 350.125 965.319 350.125 965.137 350.125C964.956 350.125 964.775 350.125 964.594 350.125C964.413 350.125 964.233 350.125 964.052 350.125C963.872 350.125 963.692 350.125 963.512 350.125C963.333 350.125 963.153 350.125 962.974 350.125C962.795 350.125 962.616 350.125 962.438 350.125C962.259 350.125 962.081 350.125 961.903 350.125C961.725 350.125 961.547 350.125 961.369 350.125C961.192 350.125 961.015 350.125 960.838 350.125C960.661 350.125 960.484 350.125 960.308 350.125C960.132 350.125 959.956 350.125 959.78 350.125C959.605 350.125 959.429 350.125 959.254 350.125C959.079 350.125 958.904 350.125 958.73 350.125C958.555 350.125 958.381 350.125 958.207 350.125C958.033 350.125 957.859 350.125 957.686 350.125C957.513 350.125 957.34 350.125 957.167 350.125C956.994 350.125 956.822 350.125 956.65 350.125C956.478 350.125 956.306 350.125 956.135 350.125C955.963 350.125 955.792 350.125 955.621 350.125C955.45 350.125 955.28 350.125 955.109 350.125C954.939 350.125 954.769 350.125 954.599 350.125C954.43 350.125 954.261 350.125 954.092 350.125C953.923 350.125 953.754 350.125 953.586 350.125C953.417 350.125 953.249 350.125 953.081 350.125C952.914 350.125 952.746 350.125 952.579 350.125C952.412 350.125 952.245 350.125 952.079 350.125C951.912 350.125 951.746 350.125 951.581 350.125C951.415 350.125 951.249 350.125 951.084 350.125C950.919 350.125 950.754 350.125 950.59 350.125C950.425 350.125 950.261 350.125 950.097 350.125C949.933 350.125 949.77 350.125 949.607 350.125C949.443 350.125 949.281 350.125 949.118 350.125C948.956 350.125 948.793 350.125 948.632 350.125C948.47 350.125 948.308 350.125 948.147 350.125C947.986 350.125 947.825 350.125 947.665 350.125C947.504 350.125 947.344 350.125 947.184 350.125C947.024 350.125 946.865 350.125 946.706 350.125C946.547 350.125 946.388 350.125 946.229 350.125C946.071 350.125 945.913 350.125 945.755 350.125C945.598 350.125 945.44 350.125 945.283 350.125C945.126 350.125 944.969 350.125 944.813 350.125C944.657 350.125 944.501 350.125 944.345 350.125C944.189 350.125 944.034 350.125 943.879 350.125C943.724 350.125 943.57 350.125 943.415 350.125C943.261 350.125 943.107 350.125 942.954 350.125C942.8 350.125 942.647 350.125 942.495 350.125C942.342 350.125 942.189 350.125 942.037 350.125C941.885 350.125 941.733 350.125 941.582 350.125C941.431 350.125 941.28 350.125 941.129 350.125C940.979 350.125 940.828 350.125 940.679 350.125C940.529 350.125 940.379 350.125 940.23 350.125C940.081 350.125 939.932 350.125 939.784 350.125C939.635 350.125 939.487 350.125 939.34 350.125C939.192 350.125 939.045 350.125 938.898 350.125C938.751 350.125 938.605 350.125 938.458 350.125C938.312 350.125 938.167 350.125 938.021 350.125C937.876 350.125 937.731 350.125 937.586 350.125C937.442 350.125 937.297 350.125 937.153 350.125C937.01 350.125 936.866 350.125 936.723 350.125C936.58 350.125 936.437 350.125 936.295 350.125C936.153 350.125 936.011 350.125 935.869 350.125C935.728 350.125 935.587 350.125 935.446 350.125C935.305 350.125 935.165 350.125 935.025 350.125C934.885 350.125 934.745 350.125 934.606 350.125C934.467 350.125 934.328 350.125 934.19 350.125C934.051 350.125 933.913 350.125 933.776 350.125C933.638 350.125 933.501 350.125 933.364 350.125C933.227 350.125 933.091 350.125 932.955 350.125C932.819 350.125 932.683 350.125 932.548 350.125C932.413 350.125 932.278 350.125 932.144 350.125C932.009 350.125 931.875 350.125 931.742 350.125C931.608 350.125 931.475 350.125 931.342 350.125C931.21 350.125 931.077 350.125 930.945 350.125C930.813 350.125 930.682 350.125 930.551 350.125C930.42 350.125 930.289 350.125 930.159 350.125C930.029 350.125 929.899 350.125 929.769 350.125C929.64 350.125 929.511 350.125 929.382 350.125C929.254 350.125 929.125 350.125 928.998 350.125C928.87 350.125 928.743 350.125 928.616 350.125C928.489 350.125 928.362 350.125 928.236 350.125C928.11 350.125 927.985 350.125 927.859 350.125C927.734 350.125 927.609 350.125 927.485 350.125C927.361 350.125 927.237 350.125 927.113 350.125C926.99 350.125 926.867 350.125 926.744 350.125C926.621 350.125 926.499 350.125 926.378 350.125C926.256 350.125 926.134 350.125 926.014 350.125C925.893 350.125 925.772 350.125 925.652 350.125C925.532 350.125 925.413 350.125 925.293 350.125C925.174 350.125 925.056 350.125 924.937 350.125C924.819 350.125 924.701 350.125 924.584 350.125C924.467 350.125 924.35 350.125 924.233 350.125C924.117 350.125 924.001 350.125 923.885 350.125C923.77 350.125 923.654 350.125 923.54 350.125C923.425 350.125 923.311 350.125 923.197 350.125C923.083 350.125 922.97 350.125 922.857 350.125C922.744 350.125 922.632 350.125 922.52 350.125C922.408 350.125 922.296 350.125 922.185 350.125C922.074 350.125 921.964 350.125 921.854 350.125C921.743 350.125 921.634 350.125 921.524 350.125C921.415 350.125 921.307 350.125 921.198 350.125C921.09 350.125 920.982 350.125 920.875 350.125C920.767 350.125 920.661 350.125 920.554 350.125C920.448 350.125 920.342 350.125 920.236 350.125C920.131 350.125 920.026 350.125 919.921 350.125C919.817 350.125 919.713 350.125 919.609 350.125C919.505 350.125 919.402 350.125 919.299 350.125C919.197 350.125 919.095 350.125 918.993 350.125C918.891 350.125 918.79 350.125 918.689 350.125C918.589 350.125 918.488 350.125 918.388 350.125C918.289 350.125 918.189 350.125 918.091 350.125C917.992 350.125 917.893 350.125 917.795 350.125C917.698 350.125 917.6 350.125 917.503 350.125C917.406 350.125 917.31 350.125 917.214 350.125C917.118 350.125 917.023 350.125 916.928 350.125C916.833 350.125 916.738 350.125 916.644 350.125C916.55 350.125 916.457 350.125 916.364 350.125C916.271 350.125 916.179 350.125 916.087 350.125C915.995 350.125 915.903 350.125 915.812 350.125C915.721 350.125 915.631 350.125 915.541 350.125C915.451 350.125 915.361 350.125 915.272 350.125C915.183 350.125 915.095 350.125 915.007 350.125C914.919 350.125 914.831 350.125 914.744 350.125C914.657 350.125 914.571 350.125 914.485 350.125C914.399 350.125 914.313 350.125 914.228 350.125C914.143 350.125 914.059 350.125 913.975 350.125C913.891 350.125 913.808 350.125 913.725 350.125C913.642 350.125 913.56 350.125 913.478 350.125C913.396 350.125 913.314 350.125 913.234 350.125C913.153 350.125 913.072 350.125 912.992 350.125C912.913 350.125 912.833 350.125 912.755 350.125C912.676 350.125 912.598 350.125 912.52 350.125C912.442 350.125 912.365 350.125 912.288 350.125C912.211 350.125 912.135 350.125 912.06 350.125C911.984 350.125 911.909 350.125 911.834 350.125C911.76 350.125 911.686 350.125 911.612 350.125C911.539 350.125 911.466 350.125 911.393 350.125C911.321 350.125 911.249 350.125 911.177 350.125C911.106 350.125 911.035 350.125 910.965 350.125C910.894 350.125 910.825 350.125 910.755 350.125C910.686 350.125 910.617 350.125 910.549 350.125C910.481 350.125 910.413 350.125 910.346 350.125C910.279 350.125 910.213 350.125 910.147 350.125C910.081 350.125 910.015 350.125 909.95 350.125C909.885 350.125 909.821 350.125 909.757 350.125C909.693 350.125 909.63 350.125 909.567 350.125C909.505 350.125 909.442 350.125 909.381 350.125C909.319 350.125 909.258 350.125 909.197 350.125C909.137 350.125 909.077 350.125 909.017 350.125C908.958 350.125 908.899 350.125 908.841 350.125C908.783 350.125 908.725 350.125 908.668 350.125C908.61 350.125 908.554 350.125 908.498 350.125C908.442 350.125 908.386 350.125 908.331 350.125C908.276 350.125 908.222 350.125 908.168 350.125C908.114 350.125 908.061 350.125 908.008 350.125C907.955 350.125 907.903 350.125 907.852 350.125C907.8 350.125 907.749 350.125 907.699 350.125C907.648 350.125 907.598 350.125 907.549 350.125C907.5 350.125 907.451 350.125 907.403 350.125C907.355 350.125 907.307 350.125 907.26 350.125C907.213 350.125 907.167 350.125 907.121 350.125C907.075 350.125 907.03 350.125 906.985 350.125C906.94 350.125 906.896 350.125 906.853 350.125C906.809 350.125 906.766 350.125 906.724 350.125C906.682 350.125 906.64 350.125 906.599 350.125C906.557 350.125 906.517 350.125 906.477 350.125C906.437 350.125 906.397 350.125 906.358 350.125C906.32 350.125 906.281 350.125 906.244 350.125C906.206 350.125 906.169 350.125 906.132 350.125C906.096 350.125 906.06 350.125 906.025 350.125C905.989 350.125 905.955 350.125 905.921 350.125C905.886 350.125 905.853 350.125 905.82 350.125C905.787 350.125 905.755 350.125 905.723 350.125C905.691 350.125 905.66 350.125 905.63 350.125C905.599 350.125 905.569 350.125 905.54 350.125C905.511 350.125 905.482 350.125 905.454 350.125C905.426 350.125 905.398 350.125 905.371 350.125C905.345 350.125 905.318 350.125 905.293 350.125C905.267 350.125 905.242 350.125 905.217 350.125C905.193 350.125 905.169 350.125 905.146 350.125C905.123 350.125 905.1 350.125 905.078 350.125C905.056 350.125 905.035 350.125 905.014 350.125C904.993 350.125 904.973 350.125 904.954 350.125C904.934 350.125 904.915 350.125 904.897 350.125C904.879 350.125 904.861 350.125 904.844 350.125C904.827 350.125 904.81 350.125 904.795 350.125C904.779 350.125 904.764 350.125 904.749 350.125C904.735 350.125 904.721 350.125 904.708 350.125C904.694 350.125 904.682 350.125 904.67 350.125C904.658 350.125 904.646 350.125 904.635 350.125C904.625 350.125 904.615 350.125 904.605 350.125C904.596 350.125 904.587 350.125 904.578 350.125C904.57 350.125 904.563 350.125 904.556 350.125C904.549 350.125 904.542 350.125 904.537 350.125C904.531 350.125 904.526 350.125 904.522 350.125C904.517 350.125 904.514 350.125 904.51 350.125C904.507 350.125 904.505 350.125 904.503 350.125C904.501 350.125 904.5 350.125 904.5 350.125C904.499 350.5 904.499 350.875 904.5 350.875V350.125ZM944 318.375H1096V317.625H944V318.375ZM1096.24 318.289L1150.74 273.289L1150.26 272.711L1095.76 317.711L1096.24 318.289ZM1150.5 273.375H1212.5V272.625H1150.5V273.375ZM1135.23 232.735L1088.23 279.735L1088.77 280.265L1135.77 233.265L1135.23 232.735ZM1088.5 279.625H873V280.375H1088.5V279.625ZM873.269 279.739C856.185 262.155 830.434 235.804 808.704 213.898C797.839 202.946 787.978 193.103 780.707 186.024C777.072 182.484 774.082 179.632 771.937 177.677C770.865 176.7 770 175.943 769.369 175.435C769.054 175.182 768.79 174.984 768.583 174.851C768.481 174.785 768.382 174.728 768.293 174.689C768.248 174.669 768.197 174.65 768.143 174.638C768.093 174.626 768.014 174.615 767.926 174.632L768.074 175.368C768.017 175.379 767.978 175.37 767.975 175.369C767.969 175.367 767.973 175.368 767.992 175.376C768.029 175.392 768.09 175.425 768.177 175.482C768.351 175.593 768.591 175.771 768.898 176.019C769.512 176.513 770.363 177.258 771.432 178.232C773.568 180.178 776.55 183.023 780.184 186.561C787.45 193.636 797.307 203.475 808.171 214.427C829.899 236.329 855.648 262.678 872.731 280.261L873.269 279.739ZM767.926 174.632C767.838 174.65 767.536 174.672 766.992 174.693C766.466 174.713 765.745 174.731 764.851 174.747C763.062 174.778 760.583 174.801 757.576 174.817C751.562 174.849 743.438 174.852 734.501 174.837C716.626 174.808 695.502 174.708 681.502 174.625L681.498 175.375C695.498 175.458 716.624 175.558 734.499 175.587C743.437 175.602 751.563 175.599 757.58 175.567C760.588 175.551 763.071 175.528 764.864 175.497C765.76 175.481 766.487 175.463 767.021 175.442C767.538 175.423 767.912 175.4 768.074 175.368L767.926 174.632ZM681.235 174.735L628.735 227.235L629.265 227.765L681.765 175.265L681.235 174.735ZM629 227.125H537.5V227.875H629V227.125ZM666.5 150.375H772.5V149.625H666.5V150.375ZM772.765 150.265L831.765 91.2652L831.235 90.7348L772.235 149.735L772.765 150.265ZM831.5 91.375H932.5V90.625H831.5V91.375ZM932.765 91.2652L1021.77 2.26517L1021.23 1.73483L932.235 90.7348L932.765 91.2652ZM1021.5 2.375H1135.5V1.625H1021.5V2.375ZM831.235 202.765L880.735 252.265L881.265 251.735L831.765 202.235L831.235 202.765ZM881 252.375H1050.5V251.625H881V252.375ZM898 222.875H1015V222.125H898V222.875ZM1015.27 222.765L1071.27 166.765L1070.73 166.235L1014.73 222.235L1015.27 222.765ZM1071 166.875H1122V166.125H1071V166.875ZM868 195.375H986V194.625H868V195.375ZM986.265 195.265L1059.27 122.265L1058.73 121.735L985.735 194.735L986.265 195.265ZM1059 122.375H1146.5V121.625H1059V122.375ZM1146.24 122.269L1185.74 160.769L1186.26 160.231L1146.76 121.731L1146.24 122.269Z" fill="#781C9C"/>
</svg>
