<svg version="1.2" xmlns="http://www.w3.org/2000/svg" viewBox="0 0 2000 2000" width="2000" height="2000">
	<title>vecteezy_computer-vector-background-with-circuit_-ai</title>
	<style>
		.s0 { fill: #781C9C } 
		.s1 { fill: #ffffff } 
	</style>
	<g id="Layer 3">
		<g id="&lt;Group&gt;">
			<!-- <path id="&lt;Compound Path&gt;" fill-rule="evenodd" class="s0" d="m1249.3 1266h-498.6c-9.2 0-16.7-7.5-16.7-16.7v-498.6c0-9.2 7.5-16.7 16.7-16.7h498.6c9.2 0 16.7 7.5 16.7 16.7v498.6c0 9.2-7.5 16.7-16.7 16.7zm-498.6-520.5c-2.9 0-5.2 2.3-5.2 5.2v498.6c0 2.9 2.3 5.2 5.2 5.2h498.6c2.9 0 5.2-2.3 5.2-5.2v-498.6c0-2.9-2.3-5.2-5.2-5.2z"/> -->
			<g id="&lt;Group&gt;">
				<g id="&lt;Group&gt;">
					<path id="&lt;Path&gt;" class="s0" d="m1378.7 829.9h-106.9v-9.2h102.9l78.8-85.6h129.3l77.8-152.3 8.2 4.2-80.3 157.3h-131z"/>
					<g id="&lt;Group&gt;">
						<path id="&lt;Path&gt;" class="s0" d="m1260.3 837.5v-24.3h24.2v24.3z"/>
					</g>
					<g id="&lt;Group&gt;">
						<path id="&lt;Path&gt;" class="s1" d="m1654.7 604.4c-10.2-5.2-14.2-17.7-9-27.9 5.2-10.2 17.7-14.2 27.9-9 10.2 5.2 14.2 17.7 9 27.9-5.2 10.2-17.7 14.2-27.9 9z"/>
						<path id="&lt;Compound Path&gt;" fill-rule="evenodd" class="s0" d="m1653.5 606.9c-11.6-5.9-16.2-20.1-10.3-31.6 5.9-11.5 20.1-16.1 31.6-10.3 11.6 5.9 16.1 20.1 10.3 31.6-5.9 11.6-20.1 16.2-31.6 10.3zm2.5-4.9c8.8 4.5 19.6 1 24.2-7.9 4.5-8.8 0.9-19.6-7.9-24.1-8.8-4.5-19.6-1.1-24.1 7.7 1.1-2.2 2.2-4.3-0.1 0.1-2.2 4.3-1.1 2.3 0 0.1-4.4 8.8-0.9 19.6 7.9 24.1zm-7.8-24.3q-0.1 0.1-0.1 0.2 0-0.1 0-0.1 0.1-0.1 0.1-0.1z"/>
					</g>
				</g>
				<g id="&lt;Group&gt;">
					<path id="&lt;Path&gt;" class="s0" d="m1469.5 881.3h-197.7v-9.2h193.9l57.3-57.3h163.6v9.2h-159.8z"/>
					<g id="&lt;Group&gt;">
						<path id="&lt;Path&gt;" class="s0" d="m1260.3 888.8v-24.2h24.2v24.2z"/>
					</g>
					<g id="&lt;Group&gt;">
						<path id="&lt;Path&gt;" class="s1" d="m1664.7 819.4c0-11.5 9.3-20.8 20.8-20.8 11.4 0 20.7 9.3 20.7 20.8 0 11.4-9.3 20.7-20.7 20.7-11.5 0-20.8-9.3-20.8-20.7z"/>
						<path id="&lt;Compound Path&gt;" fill-rule="evenodd" class="s0" d="m1662 819.4c0-13 10.5-23.5 23.5-23.5 12.9 0 23.4 10.5 23.4 23.5 0 12.9-10.5 23.5-23.4 23.5-13 0-23.5-10.6-23.5-23.5zm5.5 0c0 9.9 8 17.9 18 17.9 9.9 0 17.9-8 17.9-17.9 0-9.9-8-18-17.9-18-10 0-18 8.1-18 18z"/>
					</g>
				</g>
				<g id="&lt;Group&gt;">
					<path id="&lt;Path&gt;" class="s0" d="m1504 969.5h-82.7l-63-40.3h-86.5v-9.1h89.1l63.1 40.2h80z"/>
					<g id="&lt;Group&gt;">
						<path id="&lt;Path&gt;" class="s0" d="m1260.3 936.8v-24.3h24.2v24.3z"/>
					</g>
					<g id="&lt;Group&gt;">
						<path id="&lt;Path&gt;" class="s1" d="m1482.1 964.9c0-11.5 9.2-20.7 20.7-20.7 11.4 0 20.7 9.2 20.7 20.7 0 11.4-9.3 20.7-20.7 20.7-11.5 0-20.7-9.3-20.7-20.7z"/>
						<path id="&lt;Compound Path&gt;" fill-rule="evenodd" class="s0" d="m1479.3 964.9c0-13 10.5-23.5 23.5-23.5 12.9 0 23.5 10.5 23.5 23.5 0 12.9-10.6 23.5-23.5 23.5-13 0-23.5-10.6-23.5-23.5zm5.5 0c0 9.9 8.1 18 18 18 9.9 0 18-8.1 18-18 0-9.9-8.1-18-18-18-9.9 0-18 8.1-18 18z"/>
					</g>
				</g>
				<g id="&lt;Group&gt;">
					<path id="&lt;Path&gt;" class="s0" d="m1686.6 1030.5h-264.9l-98.9-53.2h-51v-9.2h53.3l99 53.3h262.5z"/>
					<g id="&lt;Group&gt;">
						<path id="&lt;Path&gt;" class="s0" d="m1260.3 984.8v-24.3h24.2v24.3z"/>
					</g>
					<g id="&lt;Group&gt;">
						<path id="&lt;Path&gt;" class="s1" d="m1664.7 1026c0-11.5 9.3-20.8 20.8-20.8 11.4 0 20.7 9.3 20.7 20.8 0 11.4-9.3 20.7-20.7 20.7-11.5 0-20.8-9.3-20.8-20.7z"/>
						<path id="&lt;Compound Path&gt;" fill-rule="evenodd" class="s0" d="m1662 1026c0-13 10.5-23.5 23.5-23.5 12.9 0 23.4 10.5 23.4 23.5 0 12.9-10.5 23.4-23.4 23.4-13 0-23.5-10.5-23.5-23.4zm5.5 0c0 9.9 8 17.9 18 17.9 9.9 0 17.9-8 17.9-17.9 0-10-8-18-17.9-18 2.4 0 4.9 0 0 0-5 0-2.5 0 0 0q0 0 0 0c-10 0-18 8-18 18z"/>
					</g>
				</g>
				<g id="&lt;Group&gt;">
					<path id="&lt;Path&gt;" class="s0" d="m1549.6 1203.3h-277.8v-9.2h277.8z"/>
					<g id="&lt;Group&gt;">
						<path id="&lt;Path&gt;" class="s0" d="m1260.3 1210.9v-24.3h24.2v24.3z"/>
					</g>
					<g id="&lt;Group&gt;">
						<path id="&lt;Path&gt;" class="s1" d="m1527.7 1198.7c0-11.4 9.3-20.7 20.8-20.7 11.4 0 20.7 9.3 20.7 20.7 0 11.5-9.3 20.7-20.7 20.7-11.5 0-20.8-9.2-20.8-20.7z"/>
						<path id="&lt;Compound Path&gt;" fill-rule="evenodd" class="s0" d="m1548.5 1222.2c-13 0-23.5-10.5-23.5-23.5 0-12.9 10.5-23.5 23.5-23.5 12.9 0 23.4 10.6 23.4 23.5 0 13-10.5 23.5-23.4 23.5zm-18-23.5c0 9.9 8 18 18 18 9.9 0 17.9-8.1 17.9-18 0-9.9-8-17.9-17.9-17.9-10 0-18 8-18 17.9z"/>
					</g>
				</g>
				<g id="&lt;Group&gt;">
					<path id="&lt;Path&gt;" class="s0" d="m1305.7 1022.2h-33.9v-9.2h33.9z"/>
					<g id="&lt;Group&gt;">
						<path id="&lt;Path&gt;" class="s0" d="m1260.3 1029.7v-24.3h24.2v24.3z"/>
					</g>
				</g>
				<g id="&lt;Group&gt;">
					<path id="&lt;Path&gt;" class="s0" d="m1376.2 1065.6h-104.4v-9.2h104.4z"/>
					<g id="&lt;Group&gt;">
						<path id="&lt;Path&gt;" class="s0" d="m1260.3 1073.1v-24.3h24.2v24.3z"/>
					</g>
					<g id="&lt;Group&gt;">
						<path id="&lt;Path&gt;" class="s1" d="m1354.3 1061c0-11.5 9.3-20.8 20.8-20.8 11.4 0 20.7 9.3 20.7 20.8 0 11.4-9.3 20.7-20.7 20.7-11.5 0-20.8-9.3-20.8-20.7z"/>
						<path id="&lt;Compound Path&gt;" fill-rule="evenodd" class="s0" d="m1351.6 1061c0-13 10.5-23.5 23.5-23.5 12.9 0 23.4 10.5 23.4 23.5 0 12.9-10.5 23.4-23.4 23.4-13 0-23.5-10.5-23.5-23.4zm5.5 0c0 9.9 8.1 17.9 18 17.9 9.9 0 17.9-8 17.9-17.9 0-9.9-8-18-17.9-18-9.9 0-18 8.1-18 18z"/>
					</g>
				</g>
				<g id="&lt;Group&gt;">
					<path id="&lt;Path&gt;" class="s0" d="m1496.5 1105.9h-224.7v-9.2h224.7z"/>
					<g id="&lt;Group&gt;">
						<path id="&lt;Path&gt;" class="s0" d="m1260.3 1113.4v-24.2h24.2v24.2z"/>
					</g>
					<g id="&lt;Group&gt;">
						<path id="&lt;Path&gt;" class="s1" d="m1474.6 1101.3c0-11.4 9.3-20.7 20.7-20.7 11.5 0 20.7 9.3 20.7 20.7 0 11.4-9.2 20.7-20.7 20.7-11.4 0-20.7-9.3-20.7-20.7z"/>
						<path id="&lt;Compound Path&gt;" fill-rule="evenodd" class="s0" d="m1495.3 1124.8c-12.9 0-23.5-10.6-23.5-23.5 0-12.9 10.6-23.5 23.5-23.5 13 0 23.5 10.6 23.5 23.5 0 12.9-10.5 23.5-23.5 23.5zm-18-23.5c0 9.9 8.1 18 18 18 9.9 0 18-8.1 18-18 0-9.9-8.1-18-18-18-9.9 0-18 8.1-18 18z"/>
					</g>
				</g>
				<g id="&lt;Group&gt;">
					<path id="&lt;Path&gt;" class="s0" d="m1717.4 1231.8l-74.2-74.2h-371.4v-9.1h375.2l76.9 76.8z"/>
					<g id="&lt;Group&gt;">
						<path id="&lt;Path&gt;" class="s0" d="m1260.3 1165.2v-24.3h24.2v24.3z"/>
					</g>
					<g id="&lt;Group&gt;">
						<path id="&lt;Path&gt;" class="s1" d="m1705.2 1213.1c8.1-8.1 21.2-8.1 29.3 0 8.1 8.1 8.1 21.2 0 29.3-8.1 8.1-21.2 8.1-29.3 0-8.1-8.1-8.1-21.2 0-29.3z"/>
						<path id="&lt;Compound Path&gt;" fill-rule="evenodd" class="s0" d="m1703.2 1211.1c9.2-9.1 24.1-9.1 33.2 0 9.2 9.2 9.2 24.1 0 33.2-9.1 9.2-24 9.2-33.2 0-9.1-9.1-9.1-24 0-33.2zm3.9 3.9c-7 7-7 18.4 0 25.4 7 7.1 18.4 7.1 25.4 0 7-6.9 7-18.3 0.1-25.3 1.7 1.7 3.4 3.4-0.1-0.1-3.4-3.4-1.8-1.8 0 0-7.1-7-18.4-6.9-25.4 0zm25.5 0.1q-0.1-0.1-0.1-0.1 0 0 0 0 0.1 0.1 0.1 0.1z"/>
					</g>
				</g>
			</g>
			<g id="&lt;Group&gt;">
				<g id="&lt;Group&gt;">
					<path id="&lt;Path&gt;" class="s0" d="m339.4 1436.1l-8.2-4.2 80.3-157.3h131l78.8-85.6h106.9v9.2h-102.9l-78.8 85.6h-129.3z"/>
					<g id="&lt;Group&gt;">
						<path id="&lt;Path&gt;" class="s0" d="m739.7 1181.4v24.3h-24.2v-24.3z"/>
					</g>
					<g id="&lt;Group&gt;">
						<path id="&lt;Path&gt;" class="s1" d="m345.3 1414.5c10.2 5.2 14.2 17.7 9 27.9-5.2 10.2-17.7 14.2-27.9 9-10.2-5.2-14.2-17.7-9-27.9 5.2-10.2 17.7-14.2 27.9-9z"/>
						<path id="&lt;Compound Path&gt;" fill-rule="evenodd" class="s0" d="m346.5 1412c11.6 5.9 16.2 20.1 10.3 31.6-5.9 11.5-20.1 16.1-31.6 10.2-11.5-5.8-16.1-19.9-10.3-31.4-1.5 2.8-2.9 5.5 0-0.1 2.9-5.7 1.5-3 0.1-0.2 5.9-11.4 20-15.9 31.5-10.1zm-31.6 10.4q0-0.1 0.1-0.3 0 0.1-0.1 0.2 0 0 0 0.1zm29.1-5.5c-8.8-4.5-19.6-1-24.2 7.9-4.5 8.8-0.9 19.6 7.9 24.1 8.8 4.5 19.6 1.1 24.1-7.7-1.1 2.2-2.2 4.3 0.1-0.1 2.2-4.3 1.1-2.3 0-0.1 4.4-8.8 0.9-19.6-7.9-24.1zm7.8 24.3q0.1-0.1 0.1-0.2 0 0.1 0 0.1-0.1 0.1-0.1 0.1z"/>
					</g>
				</g>
				<g id="&lt;Group&gt;">
					<path id="&lt;Path&gt;" class="s0" d="m477 1204.1h-163.6v-9.2h159.8l57.3-57.3h197.7v9.2h-193.9z"/>
					<g id="&lt;Group&gt;">
						<path id="&lt;Path&gt;" class="s0" d="m739.7 1130.1v24.2h-24.2v-24.2z"/>
					</g>
					<g id="&lt;Group&gt;">
						<path id="&lt;Path&gt;" class="s1" d="m335.3 1199.5c0 11.5-9.3 20.8-20.8 20.8-11.4 0-20.7-9.3-20.7-20.8 0-11.4 9.3-20.7 20.7-20.7 11.5 0 20.8 9.3 20.8 20.7z"/>
						<path id="&lt;Compound Path&gt;" fill-rule="evenodd" class="s0" d="m338 1199.5c0 13-10.5 23.5-23.5 23.5-12.9 0-23.4-10.5-23.4-23.5 0-12.9 10.5-23.5 23.4-23.5 13 0 23.5 10.6 23.5 23.5zm-5.5 0c0-9.9-8-17.9-18-17.9-9.9 0-17.9 8-17.9 17.9 0 9.9 8 18 17.9 18 10 0 18-8.1 18-18z"/>
					</g>
				</g>
				<g id="&lt;Group&gt;">
					<path id="&lt;Path&gt;" class="s0" d="m728.2 1098.8h-89.1l-63.1-40.2h-80v-9.2h82.7l63 40.3h86.5z"/>
					<g id="&lt;Group&gt;">
						<path id="&lt;Path&gt;" class="s0" d="m739.7 1082.1v24.3h-24.2v-24.3z"/>
					</g>
					<g id="&lt;Group&gt;">
						<path id="&lt;Path&gt;" class="s1" d="m517.9 1054c0 11.5-9.2 20.7-20.7 20.7-11.4 0-20.7-9.2-20.7-20.7 0-11.4 9.3-20.7 20.7-20.7 11.5 0 20.7 9.3 20.7 20.7z"/>
						<path id="&lt;Compound Path&gt;" fill-rule="evenodd" class="s0" d="m520.7 1054c0 13-10.5 23.5-23.5 23.5-12.9 0-23.5-10.5-23.5-23.5 0-12.9 10.6-23.5 23.5-23.5 13 0 23.5 10.6 23.5 23.5zm-5.5 0c0-9.9-8.1-18-18-18-9.9 0-18 8.1-18 18 0 9.9 8.1 18 18 18 9.9 0 18-8.1 18-18z"/>
					</g>
				</g>
				<g id="&lt;Group&gt;">
					<path id="&lt;Path&gt;" class="s0" d="m728.2 1050.8h-53.3l-99-53.3h-262.5v-9.1h264.9l98.9 53.2h51z"/>
					<g id="&lt;Group&gt;">
						<path id="&lt;Path&gt;" class="s0" d="m739.7 1034.1v24.3h-24.2v-24.3z"/>
					</g>
					<g id="&lt;Group&gt;">
						<path id="&lt;Path&gt;" class="s1" d="m335.3 992.9c0 11.5-9.3 20.8-20.8 20.8-11.4 0-20.7-9.3-20.7-20.8 0-11.4 9.3-20.7 20.7-20.7 11.5 0 20.8 9.3 20.8 20.7z"/>
						<path id="&lt;Compound Path&gt;" fill-rule="evenodd" class="s0" d="m338 992.9c0 13-10.5 23.5-23.5 23.5-12.9 0-23.4-10.5-23.4-23.5 0-12.9 10.5-23.4 23.4-23.4 13 0 23.5 10.5 23.5 23.4zm-5.5 0c0-9.9-8-17.9-18-17.9-9.9 0-17.9 8-17.9 17.9 0 10 8 18 17.9 18 10 0 18-8 18-18z"/>
					</g>
				</g>
				<g id="&lt;Group&gt;">
					<path id="&lt;Path&gt;" class="s0" d="m728.2 824.8h-277.8v-9.2h277.8z"/>
					<g id="&lt;Group&gt;">
						<path id="&lt;Path&gt;" class="s0" d="m739.7 808v24.3h-24.2v-24.3z"/>
					</g>
					<g id="&lt;Group&gt;">
						<path id="&lt;Path&gt;" class="s1" d="m472.3 820.2c0 11.4-9.3 20.7-20.8 20.7-11.4 0-20.7-9.3-20.7-20.7 0-11.5 9.3-20.7 20.7-20.7 11.5 0 20.8 9.2 20.8 20.7z"/>
						<path id="&lt;Compound Path&gt;" fill-rule="evenodd" class="s0" d="m475 820.2c0 12.9-10.5 23.5-23.5 23.5-12.9 0-23.4-10.6-23.4-23.5 0-13 10.5-23.5 23.4-23.5 13 0 23.5 10.5 23.5 23.5zm-5.5 0c0-9.9-8-18-18-18-9.9 0-17.9 8.1-17.9 18 0 9.9 8 17.9 17.9 17.9 10 0 18-8 18-17.9z"/>
					</g>
				</g>
				<g id="&lt;Group&gt;">
					<path id="&lt;Path&gt;" class="s0" d="m728.2 1005.9h-33.9v-9.2h33.9z"/>
					<g id="&lt;Group&gt;">
						<path id="&lt;Path&gt;" class="s0" d="m739.7 989.2v24.3h-24.2v-24.3z"/>
					</g>
				</g>
				<g id="&lt;Group&gt;">
					<path id="&lt;Path&gt;" class="s0" d="m728.2 962.5h-104.4v-9.2h104.4z"/>
					<g id="&lt;Group&gt;">
						<path id="&lt;Path&gt;" class="s0" d="m739.7 945.8v24.3h-24.2v-24.3z"/>
					</g>
					<g id="&lt;Group&gt;">
						<path id="&lt;Path&gt;" class="s1" d="m645.7 957.9c0 11.5-9.3 20.8-20.8 20.8-11.4 0-20.7-9.3-20.7-20.8 0-11.4 9.3-20.7 20.7-20.7 11.5 0 20.8 9.3 20.8 20.7z"/>
						<path id="&lt;Compound Path&gt;" fill-rule="evenodd" class="s0" d="m648.4 957.9c0 13-10.5 23.5-23.5 23.5-12.9 0-23.4-10.5-23.4-23.5 0-12.9 10.5-23.4 23.4-23.4 13 0 23.5 10.5 23.5 23.4zm-23.5 18c9.9 0 18-8.1 18-18 0-9.9-8.1-17.9-18-17.9-9.9 0-17.9 8-17.9 17.9 0 9.9 8 18 17.9 18z"/>
					</g>
				</g>
				<g id="&lt;Group&gt;">
					<path id="&lt;Path&gt;" class="s0" d="m728.2 922.2h-224.7v-9.2h224.7z"/>
					<g id="&lt;Group&gt;">
						<path id="&lt;Path&gt;" class="s0" d="m739.7 905.5v24.2h-24.2v-24.2z"/>
					</g>
					<g id="&lt;Group&gt;">
						<path id="&lt;Path&gt;" class="s1" d="m525.4 917.6c0 11.4-9.3 20.7-20.7 20.7-11.5 0-20.7-9.3-20.7-20.7 0-11.4 9.2-20.7 20.7-20.7 11.4 0 20.7 9.3 20.7 20.7z"/>
						<path id="&lt;Compound Path&gt;" fill-rule="evenodd" class="s0" d="m528.2 917.6c0 12.9-10.6 23.5-23.5 23.5-13 0-23.5-10.6-23.5-23.5 0-12.9 10.5-23.5 23.5-23.5 12.9 0 23.5 10.6 23.5 23.5zm-5.5 0c0-9.9-8.1-18-18-18-9.9 0-18 8.1-18 18 0 9.9 8.1 18 18 18q0 0 0 0c9.9 0-9.9 0 0 0q0 0 0 0c9.9 0 18-8.1 18-18z"/>
					</g>
				</g>
				<g id="&lt;Group&gt;">
					<path id="&lt;Path&gt;" class="s0" d="m728.2 870.4h-375.2l-76.9-76.8 6.5-6.5 74.2 74.2h371.4z"/>
					<g id="&lt;Group&gt;">
						<path id="&lt;Path&gt;" class="s0" d="m739.7 853.7v24.3h-24.2v-24.3z"/>
					</g>
					<g id="&lt;Group&gt;">
						<path id="&lt;Path&gt;" class="s1" d="m294.8 805.8c-8.1 8.1-21.2 8.1-29.3 0-8.1-8.1-8.1-21.2 0-29.3 8.1-8.1 21.2-8.1 29.3 0 8.1 8.1 8.1 21.2 0 29.3z"/>
						<path id="&lt;Compound Path&gt;" fill-rule="evenodd" class="s0" d="m296.8 807.8c-9.2 9.1-24.1 9.1-33.2 0-9.2-9.2-9.2-24.1 0-33.2 9.1-9.2 24-9.2 33.2 0 9.1 9.1 9.1 24 0 33.2zm-3.9-3.9c7-7 7-18.4 0-25.4-7-7.1-18.4-7.1-25.4 0-7 6.9-7 18.3-0.1 25.3-1.7-1.7-3.4-3.4 0.1 0.1 3.4 3.4 1.7 1.7 0 0 7 7 18.4 7 25.4 0zm-25.5-0.1q0.1 0.1 0.1 0.1 0 0 0 0-0.1-0.1-0.1-0.1z"/>
					</g>
				</g>
			</g>
			<g id="&lt;Group&gt;">
				<path id="&lt;Path&gt;" class="s0" d="m782.6 728.2h-9.2v-68.9l-51.5-51.5v-307.1h9.1v303.3l51.6 51.5z"/>
				<g id="&lt;Group&gt;">
					<path id="&lt;Path&gt;" class="s0" d="m790.1 739.7h-24.3v-24.2h24.3z"/>
				</g>
				<g id="&lt;Group&gt;">
					<path id="&lt;Path&gt;" class="s1" d="m726.5 322.6c-11.5 0-20.8-9.3-20.8-20.7 0-11.4 9.3-20.7 20.8-20.7 11.4 0 20.7 9.3 20.7 20.7 0 11.4-9.3 20.7-20.7 20.7z"/>
					<path id="&lt;Compound Path&gt;" fill-rule="evenodd" class="s0" d="m726.5 325.4c-13 0-23.5-10.6-23.5-23.5 0-12.9 10.5-23.5 23.5-23.5 12.9 0 23.4 10.6 23.4 23.5 0 12.9-10.5 23.5-23.4 23.5zm0-5.5c9.9 0 17.9-8.1 17.9-18 0-9.9-8-18-17.9-18-10 0-18 8.1-18 18 0 9.9 8 18 18 18z"/>
				</g>
			</g>
			<g id="&lt;Group&gt;">
				<path id="&lt;Path&gt;" class="s0" d="m849.3 728.2h-9.2v-102.3l-44.2-44.2v-105.9h9.2v102.1l44.2 44.2z"/>
				<g id="&lt;Group&gt;">
					<path id="&lt;Path&gt;" class="s0" d="m856.8 739.7h-24.3v-24.2h24.3z"/>
				</g>
				<g id="&lt;Group&gt;">
					<path id="&lt;Path&gt;" class="s1" d="m800.5 497.7c-11.4 0-20.7-9.3-20.7-20.7 0-11.5 9.3-20.8 20.7-20.8 11.5 0 20.8 9.3 20.8 20.8 0 11.4-9.3 20.7-20.8 20.7z"/>
					<path id="&lt;Compound Path&gt;" fill-rule="evenodd" class="s0" d="m800.5 500.4c-12.9 0-23.5-10.5-23.5-23.4 0-13 10.6-23.5 23.5-23.5 13 0 23.5 10.5 23.5 23.5 0 12.9-10.5 23.4-23.5 23.4zm-17.9-23.4c0 9.9 8 17.9 17.9 17.9 9.9 0 18-8 18-17.9 0-10-8.1-18-18-18-9.9 0-17.9 8-17.9 18z"/>
				</g>
			</g>
			<g id="&lt;Group&gt;">
				<path id="&lt;Path&gt;" class="s0" d="m911.7 728.2h-9.2v-427.5h9.2z"/>
				<g id="&lt;Group&gt;">
					<path id="&lt;Path&gt;" class="s0" d="m919.2 739.7h-24.2v-24.2h24.2z"/>
				</g>
				<g id="&lt;Group&gt;">
					<path id="&lt;Path&gt;" class="s1" d="m907.1 322.6c-11.5 0-20.7-9.3-20.7-20.7 0-11.4 9.2-20.7 20.7-20.7 11.4 0 20.7 9.3 20.7 20.7 0 11.4-9.3 20.7-20.7 20.7z"/>
					<path id="&lt;Compound Path&gt;" fill-rule="evenodd" class="s0" d="m907.1 325.4c-13 0-23.5-10.6-23.5-23.5 0-12.9 10.5-23.5 23.5-23.5 12.9 0 23.5 10.6 23.5 23.5 0 12.9-10.6 23.5-23.5 23.5zm0-5.5c9.9 0 18-8.1 18-18 0-9.9-8.1-18-18-18-9.9 0-18 8.1-18 18 0 9.9 8.1 18 18 18z"/>
				</g>
			</g>
			<g id="&lt;Group&gt;">
				<path id="&lt;Path&gt;" class="s0" d="m971 728.2h-9.1v-184.7h9.1z"/>
				<g id="&lt;Group&gt;">
					<path id="&lt;Path&gt;" class="s0" d="m978.6 739.7h-24.3v-24.2h24.3z"/>
				</g>
				<g id="&lt;Group&gt;">
					<path id="&lt;Path&gt;" class="s1" d="m966.4 565.4c-11.4 0-20.7-9.3-20.7-20.7 0-11.5 9.3-20.7 20.7-20.7 11.5 0 20.8 9.2 20.8 20.7 0 11.4-9.3 20.7-20.8 20.7z"/>
					<path id="&lt;Compound Path&gt;" fill-rule="evenodd" class="s0" d="m966.4 568.2c-12.9 0-23.4-10.6-23.4-23.5 0-13 10.5-23.5 23.4-23.5 13 0 23.5 10.5 23.5 23.5 0 12.9-10.5 23.5-23.5 23.5zm0-5.5c10 0 18-8.1 18-18 0-9.9-8-18-18-18-9.9 0-17.9 8.1-17.9 18 0 9.9 8 18 17.9 18z"/>
				</g>
			</g>
			<g id="&lt;Group&gt;">
				<path id="&lt;Path&gt;" class="s0" d="m1224.7 728.2h-9.1v-72.7l51.5-51.5v-303.3h9.1v307.1l-51.5 51.5z"/>
				<g id="&lt;Group&gt;">
					<path id="&lt;Path&gt;" class="s0" d="m1232.3 739.7h-24.3v-24.2h24.3z"/>
				</g>
				<g id="&lt;Group&gt;">
					<path id="&lt;Path&gt;" class="s1" d="m1271.7 322.6c-11.5 0-20.8-9.3-20.8-20.7 0-11.4 9.3-20.7 20.8-20.7 11.4 0 20.7 9.3 20.7 20.7 0 11.4-9.3 20.7-20.7 20.7z"/>
					<path id="&lt;Compound Path&gt;" fill-rule="evenodd" class="s0" d="m1271.7 325.4c-13 0-23.5-10.6-23.5-23.5 0-12.9 10.5-23.5 23.5-23.5 12.9 0 23.4 10.6 23.4 23.5 0 12.9-10.5 23.5-23.4 23.5zm0-5.5c9.9 0 17.9-8.1 17.9-18 0-9.9-8-18-17.9-18-10 0-18 8.1-18 18 0 9.9 8 18 18 18z"/>
				</g>
			</g>
			<g id="&lt;Group&gt;">
				<path id="&lt;Path&gt;" class="s0" d="m1158 728.2h-9.2v-106.1l44.2-44.2v-102.1h9.2v105.9l-44.2 44.2z"/>
				<g id="&lt;Group&gt;">
					<path id="&lt;Path&gt;" class="s0" d="m1165.6 739.7h-24.3v-24.2h24.3z"/>
				</g>
				<g id="&lt;Group&gt;">
					<path id="&lt;Path&gt;" class="s1" d="m1197.6 497.7c-11.5 0-20.8-9.3-20.8-20.7 0-11.5 9.3-20.8 20.8-20.8 11.4 0 20.7 9.3 20.7 20.8 0 11.4-9.3 20.7-20.7 20.7z"/>
					<path id="&lt;Compound Path&gt;" fill-rule="evenodd" class="s0" d="m1197.6 500.4c-13 0-23.5-10.5-23.5-23.4 0-13 10.5-23.5 23.5-23.5 12.9 0 23.5 10.5 23.5 23.5 0 12.9-10.6 23.4-23.5 23.4zm0-5.5c9.9 0 17.9-8 17.9-17.9 0-10-8-18-17.9-18-9.9 0-18 8-18 18 0 9.9 8.1 17.9 18 17.9z"/>
				</g>
			</g>
			<g id="&lt;Group&gt;">
				<path id="&lt;Path&gt;" class="s0" d="m1095.6 728.2h-9.2v-427.5h9.2z"/>
				<g id="&lt;Group&gt;">
					<path id="&lt;Path&gt;" class="s0" d="m1103.2 739.7h-24.3v-24.2h24.3z"/>
				</g>
				<g id="&lt;Group&gt;">
					<path id="&lt;Path&gt;" class="s1" d="m1091 322.6c-11.4 0-20.7-9.3-20.7-20.7 0-11.4 9.3-20.7 20.7-20.7 11.5 0 20.7 9.3 20.7 20.7 0 11.4-9.2 20.7-20.7 20.7z"/>
					<path id="&lt;Compound Path&gt;" fill-rule="evenodd" class="s0" d="m1091 325.4c-12.9 0-23.5-10.6-23.5-23.5 0-12.9 10.6-23.5 23.5-23.5 13 0 23.5 10.6 23.5 23.5 0 12.9-10.5 23.5-23.5 23.5zm0-5.5c9.9 0 18-8.1 18-18 0-9.9-8.1-18-18-18-9.9 0-18 8.1-18 18 0 9.9 8.1 18 18 18z"/>
				</g>
			</g>
			<g id="&lt;Group&gt;">
				<path id="&lt;Path&gt;" class="s0" d="m1036.2 728.2h-9.1v-184.7h9.1z"/>
				<g id="&lt;Group&gt;">
					<path id="&lt;Path&gt;" class="s0" d="m1043.8 739.7h-24.3v-24.2h24.3z"/>
				</g>
				<g id="&lt;Group&gt;">
					<path id="&lt;Path&gt;" class="s1" d="m1031.7 565.4c-11.5 0-20.8-9.3-20.8-20.7 0-11.5 9.3-20.7 20.8-20.7 11.4 0 20.7 9.2 20.7 20.7 0 11.4-9.3 20.7-20.7 20.7z"/>
					<path id="&lt;Compound Path&gt;" fill-rule="evenodd" class="s0" d="m1031.7 568.2c-13 0-23.5-10.6-23.5-23.5 0-13 10.5-23.5 23.5-23.5 12.9 0 23.4 10.5 23.4 23.5 0 12.9-10.5 23.5-23.4 23.5zm0-5.5c9.9 0 17.9-8.1 17.9-18 0-9.9-8-18-17.9-18-10 0-18 8.1-18 18 0 9.9 8 18 18 18z"/>
				</g>
			</g>
			<g id="&lt;Group&gt;">
				<path id="&lt;Path&gt;" class="s0" d="m731 1699.3h-9.1v-307.1l51.5-51.5v-68.9h9.2v72.7l-51.6 51.5z"/>
				<g id="&lt;Group&gt;">
					<path id="&lt;Path&gt;" class="s0" d="m765.8 1260.3h24.3v24.2h-24.3z"/>
				</g>
				<g id="&lt;Group&gt;">
					<path id="&lt;Path&gt;" class="s1" d="m726.5 1677.4c11.4 0 20.7 9.3 20.7 20.7 0 11.4-9.3 20.7-20.7 20.7-11.5 0-20.8-9.3-20.8-20.7 0-11.4 9.3-20.7 20.8-20.7z"/>
					<path id="&lt;Compound Path&gt;" fill-rule="evenodd" class="s0" d="m703 1698.1c0-12.9 10.5-23.5 23.5-23.5 12.9 0 23.4 10.6 23.4 23.5 0 12.9-10.5 23.5-23.4 23.5-13 0-23.5-10.6-23.5-23.5zm23.5-18c-10 0-18 8.1-18 18 0 9.9 8 18 18 18 9.9 0 17.9-8.1 17.9-18 0-9.9-8-18-17.9-18z"/>
				</g>
			</g>
			<g id="&lt;Group&gt;">
				<path id="&lt;Path&gt;" class="s0" d="m805.1 1524.2h-9.2v-105.9l44.2-44.2v-102.3h9.2v106.1l-44.2 44.2z"/>
				<g id="&lt;Group&gt;">
					<path id="&lt;Path&gt;" class="s0" d="m832.5 1260.3h24.3v24.2h-24.3z"/>
				</g>
				<g id="&lt;Group&gt;">
					<path id="&lt;Path&gt;" class="s1" d="m800.5 1502.3c11.5 0 20.8 9.3 20.8 20.7 0 11.5-9.3 20.8-20.8 20.8-11.4 0-20.7-9.3-20.7-20.8 0-11.4 9.3-20.7 20.7-20.7z"/>
					<path id="&lt;Compound Path&gt;" fill-rule="evenodd" class="s0" d="m800.5 1499.6c13 0 23.5 10.5 23.5 23.4 0 13-10.5 23.5-23.5 23.5-12.9 0-23.5-10.5-23.5-23.5 0-12.9 10.6-23.4 23.5-23.4zm0 5.5c-9.9 0-17.9 8-17.9 17.9 0 10 8 18 17.9 18 9.9 0 18-8 18-18 0-9.9-8.1-17.9-18-17.9z"/>
				</g>
			</g>
			<g id="&lt;Group&gt;">
				<path id="&lt;Path&gt;" class="s0" d="m911.7 1699.3h-9.2v-427.5h9.2z"/>
				<g id="&lt;Group&gt;">
					<path id="&lt;Path&gt;" class="s0" d="m895 1260.3h24.2v24.2h-24.2z"/>
				</g>
				<g id="&lt;Group&gt;">
					<path id="&lt;Path&gt;" class="s1" d="m907.1 1677.4c11.4 0 20.7 9.3 20.7 20.7 0 11.4-9.3 20.7-20.7 20.7-11.5 0-20.7-9.3-20.7-20.7 0-11.4 9.2-20.7 20.7-20.7z"/>
					<path id="&lt;Compound Path&gt;" fill-rule="evenodd" class="s0" d="m907.1 1674.6c12.9 0 23.5 10.6 23.5 23.5 0 12.9-10.6 23.5-23.5 23.5-13 0-23.5-10.6-23.5-23.5 0-12.9 10.5-23.5 23.5-23.5zm0 5.5c-9.9 0-18 8.1-18 18 0 9.9 8.1 18 18 18 9.9 0 18-8.1 18-18 0-9.9-8.1-18-18-18z"/>
				</g>
			</g>
			<g id="&lt;Group&gt;">
				<path id="&lt;Path&gt;" class="s0" d="m971 1456.5h-9.1v-184.7h9.1z"/>
				<g id="&lt;Group&gt;">
					<path id="&lt;Path&gt;" class="s0" d="m954.3 1260.3h24.3v24.2h-24.3z"/>
				</g>
				<g id="&lt;Group&gt;">
					<path id="&lt;Path&gt;" class="s1" d="m966.4 1434.6c11.5 0 20.8 9.3 20.8 20.7 0 11.5-9.3 20.7-20.8 20.7-11.4 0-20.7-9.2-20.7-20.7 0-11.4 9.3-20.7 20.7-20.7z"/>
					<path id="&lt;Compound Path&gt;" fill-rule="evenodd" class="s0" d="m943 1455.3c0-12.9 10.5-23.5 23.4-23.5 13 0 23.5 10.6 23.5 23.5 0 13-10.5 23.5-23.5 23.5-12.9 0-23.4-10.5-23.4-23.5zm41.4 0c0-9.9-8-18-18-18-9.9 0-17.9 8.1-17.9 18 0 9.9 8 18 17.9 18 10 0 18-8.1 18-18z"/>
				</g>
			</g>
			<g id="&lt;Group&gt;">
				<path id="&lt;Path&gt;" class="s0" d="m1276.2 1699.3h-9.1v-303.3l-51.5-51.5v-72.7h9.1v68.9l51.5 51.5z"/>
				<g id="&lt;Group&gt;">
					<path id="&lt;Path&gt;" class="s0" d="m1208 1260.3h24.3v24.2h-24.3z"/>
				</g>
				<g id="&lt;Group&gt;">
					<path id="&lt;Path&gt;" class="s1" d="m1271.7 1677.4c11.4 0 20.7 9.3 20.7 20.7 0 11.4-9.3 20.7-20.7 20.7-11.5 0-20.8-9.3-20.8-20.7 0-11.4 9.3-20.7 20.8-20.7z"/>
					<path id="&lt;Compound Path&gt;" fill-rule="evenodd" class="s0" d="m1271.7 1674.6c12.9 0 23.4 10.6 23.4 23.5 0 12.9-10.5 23.5-23.4 23.5-13 0-23.5-10.6-23.5-23.5 0-12.9 10.5-23.5 23.5-23.5zm0 5.5c-10 0-18 8.1-18 18 0 9.9 8 18 18 18 9.9 0 17.9-8.1 17.9-18 0-9.9-8-18-17.9-18z"/>
				</g>
			</g>
			<g id="&lt;Group&gt;">
				<path id="&lt;Path&gt;" class="s0" d="m1202.2 1524.2h-9.2v-102.1l-44.2-44.2v-106.1h9.2v102.3l44.2 44.2z"/>
				<g id="&lt;Group&gt;">
					<path id="&lt;Path&gt;" class="s0" d="m1141.3 1260.3h24.3v24.2h-24.3z"/>
				</g>
				<g id="&lt;Group&gt;">
					<path id="&lt;Path&gt;" class="s1" d="m1197.6 1502.3c11.4 0 20.7 9.3 20.7 20.7 0 11.5-9.3 20.8-20.7 20.8-11.5 0-20.8-9.3-20.8-20.8 0-11.4 9.3-20.7 20.8-20.7z"/>
					<path id="&lt;Compound Path&gt;" fill-rule="evenodd" class="s0" d="m1197.6 1499.6c12.9 0 23.5 10.5 23.5 23.4 0 13-10.6 23.5-23.5 23.5-13 0-23.5-10.5-23.5-23.5 0-12.9 10.5-23.4 23.5-23.4zm0 5.5c-9.9 0-18 8-18 17.9 0 10 8.1 18 18 18 9.9 0 17.9-8 17.9-18 0-9.9-8-17.9-17.9-17.9z"/>
				</g>
			</g>
			<g id="&lt;Group&gt;">
				<path id="&lt;Path&gt;" class="s0" d="m1095.6 1699.3h-9.2v-427.5h9.2z"/>
				<g id="&lt;Group&gt;">
					<path id="&lt;Path&gt;" class="s0" d="m1078.9 1260.3h24.3v24.2h-24.3z"/>
				</g>
				<g id="&lt;Group&gt;">
					<path id="&lt;Path&gt;" class="s1" d="m1091 1677.4c11.5 0 20.7 9.3 20.7 20.7 0 11.4-9.2 20.7-20.7 20.7-11.4 0-20.7-9.3-20.7-20.7 0-11.4 9.3-20.7 20.7-20.7z"/>
					<path id="&lt;Compound Path&gt;" fill-rule="evenodd" class="s0" d="m1091 1674.6c13 0 23.5 10.6 23.5 23.5 0 12.9-10.5 23.5-23.5 23.5-12.9 0-23.5-10.6-23.5-23.5 0-12.9 10.6-23.5 23.5-23.5zm0 5.5c-9.9 0-18 8.1-18 18 0 9.9 8.1 18 18 18 9.9 0 18-8.1 18-18 0-9.9-8.1-18-18-18z"/>
				</g>
			</g>
			<g id="&lt;Group&gt;">
				<path id="&lt;Path&gt;" class="s0" d="m1036.2 1456.5h-9.1v-184.7h9.1z"/>
				<g id="&lt;Group&gt;">
					<path id="&lt;Path&gt;" class="s0" d="m1019.5 1260.3h24.3v24.2h-24.3z"/>
				</g>
				<g id="&lt;Group&gt;">
					<path id="&lt;Path&gt;" class="s1" d="m1031.7 1434.6c11.4 0 20.7 9.3 20.7 20.7 0 11.5-9.3 20.7-20.7 20.7-11.5 0-20.8-9.2-20.8-20.7 0-11.4 9.3-20.7 20.8-20.7z"/>
					<path id="&lt;Compound Path&gt;" fill-rule="evenodd" class="s0" d="m1031.7 1431.8c12.9 0 23.4 10.6 23.4 23.5 0 13-10.5 23.5-23.4 23.5-13 0-23.5-10.5-23.5-23.5 0-12.9 10.5-23.5 23.5-23.5zm17.9 23.5c0-9.9-8-18-17.9-18-10 0-18 8.1-18 18 0 9.9 8 18 18 18 9.9 0 17.9-8.1 17.9-18z"/>
				</g>
			</g>
		</g>
	</g>
</svg>