<?xml version="1.0" encoding="UTF-8"?>
<svg xmlns="http://www.w3.org/2000/svg" xmlns:xlink="http://www.w3.org/1999/xlink" width="15px" height="15px" viewBox="0 0 15 15" version="1.1">
<g id="surface1">
<path style=" stroke:none;fill-rule:nonzero;fill:rgb(0%,0%,0%);fill-opacity:1;" d="M 6.300781 0.898438 C 3.480469 0.898438 1.199219 3.179688 1.199219 6 C 1.199219 8.820312 3.480469 11.101562 6.300781 11.101562 C 7.304688 11.101562 8.242188 10.804688 9.03125 10.304688 L 12.714844 13.988281 L 13.988281 12.714844 L 10.355469 9.082031 C 11.007812 8.226562 11.398438 7.160156 11.398438 6 C 11.398438 3.179688 9.121094 0.898438 6.300781 0.898438 Z M 6.300781 2.101562 C 8.460938 2.101562 10.199219 3.839844 10.199219 6 C 10.199219 8.160156 8.460938 9.898438 6.300781 9.898438 C 4.140625 9.898438 2.398438 8.160156 2.398438 6 C 2.398438 3.839844 4.140625 2.101562 6.300781 2.101562 Z M 6.300781 2.101562 "/>
</g>
</svg>
